<svg xmlns="http://www.w3.org/2000/svg" width="278" height="246" fill="none"><g stroke="#fff" stroke-width="3" clip-path="url(#a)"><path fill="#4E4E4E" d="M111.695 16.755a12.944 12.944 0 0 0-4.906 1.784L6.511 80.88C3.32 82.863 1.5 86.04 1.5 89.345v97.123c0 4.222 2.97 8.152 7.7 9.722l98.014 32.525 4.481-211.96Zm0 0a13.551 13.551 0 0 1 6.865.736L227.586 59.5a11.878 11.878 0 0 1 4.573 3.124c.873.973 1.549 2.056 1.978 3.221l41.794 113.446c.98 2.664.689 5.567-.834 8.054-1.528 2.499-4.184 4.385-7.395 5.15h-.001l-153.082 36.531h-.001m-2.923-212.272 2.923 212.272m0 0c-1.031.247-2.092.37-3.153.37-.902 0-1.812-.1-2.714-.284m5.867-.086-5.867.086m0 0a13.658 13.658 0 0 1-1.536-.397l1.536.397Z"/><path fill="#707072" d="M118.56 17.49a13.468 13.468 0 0 0-5.263-.88l23.973 110.433 93.651-65.603a12.067 12.067 0 0 0-3.334-1.938L118.56 17.49Zm0 0 109.026 42.012L118.56 17.49Z"/><path fill="#474748" d="M114.619 229.026h.001l153.082-36.531c3.212-.765 5.868-2.651 7.396-5.15 1.521-2.486 1.813-5.389.833-8.053l-161.312 49.734Zm0 0c-1.032.247-2.092.37-3.153.37-.372 0-.746-.017-1.119-.05l27.238-98.861 95.397-66.826c.483.688.873 1.42 1.155 2.187l41.794 113.446-161.312 49.734Z"/></g><defs><clipPath id="a"><path fill="#fff" d="M0 0h278v246H0z"/></clipPath></defs></svg>