<svg width="278" height="246" viewBox="0 0 278 246" fill="none" xmlns="http://www.w3.org/2000/svg">
<g clip-path="url(#clip0_20_40)">
<g filter="url(#filter0_i_20_40)">
<path d="M111.695 16.7551L111.695 16.7551C109.947 17.0185 108.268 17.6188 106.789 18.5388L106.789 18.5391L6.51067 80.8795C3.31958 82.8633 1.5 86.039 1.5 89.3448V186.468C1.5 190.69 4.47032 194.62 9.20074 196.19L107.214 228.715L111.695 16.7551ZM111.695 16.7551C113.985 16.41 116.373 16.6476 118.56 17.4905L227.586 59.5014C229.41 60.2054 230.963 61.2933 232.159 62.6246C233.032 63.5976 233.708 64.6808 234.137 65.846L275.931 179.292C276.911 181.956 276.62 184.859 275.097 187.346L275.097 187.346C273.569 189.845 270.913 191.731 267.702 192.496L267.701 192.496L114.619 229.027L114.618 229.027M111.695 16.7551L114.618 229.027M114.618 229.027C113.587 229.274 112.526 229.397 111.465 229.397C110.563 229.397 109.653 229.297 108.751 229.113M114.618 229.027L108.751 229.113M108.751 229.113C108.21 229.002 107.7 228.876 107.215 228.716L108.751 229.113Z" fill="#222224" stroke="#FFD9D9" stroke-width="3"/>
<path d="M118.56 17.4905C118.56 17.4905 118.56 17.4905 118.56 17.4905C116.879 16.8427 115.079 16.5524 113.297 16.6094L137.27 127.043L230.921 61.4398C229.955 60.6442 228.834 59.9834 227.587 59.5025L118.56 17.4905ZM118.56 17.4905L227.586 59.5024L118.56 17.4905Z" fill="#403F44" stroke="#FFD9D9" stroke-width="3"/>
<path d="M114.619 229.026L114.62 229.026L267.702 192.495L267.702 192.495C270.914 191.73 273.57 189.844 275.098 187.345L275.098 187.345C276.619 184.859 276.911 181.956 275.931 179.292L114.619 229.026ZM114.619 229.026C113.587 229.273 112.527 229.396 111.466 229.396C111.094 229.396 110.72 229.379 110.347 229.346L137.585 130.485L232.982 63.6586C233.465 64.3467 233.855 65.0785 234.137 65.8458C234.137 65.8459 234.137 65.8459 234.137 65.846L275.931 179.292L114.619 229.026Z" fill="#313133" stroke="#FFD9D9" stroke-width="3"/>
</g>
</g>
<defs>
<filter id="filter0_i_20_40" x="0" y="15.1024" width="278" height="227.795" filterUnits="userSpaceOnUse" color-interpolation-filters="sRGB">
<feFlood flood-opacity="0" result="BackgroundImageFix"/>
<feBlend mode="normal" in="SourceGraphic" in2="BackgroundImageFix" result="shape"/>
<feColorMatrix in="SourceAlpha" type="matrix" values="0 0 0 0 0 0 0 0 0 0 0 0 0 0 0 0 0 0 127 0" result="hardAlpha"/>
<feOffset dy="20"/>
<feGaussianBlur stdDeviation="6"/>
<feComposite in2="hardAlpha" operator="arithmetic" k2="-1" k3="1"/>
<feColorMatrix type="matrix" values="0 0 0 0 0.604167 0 0 0 0 0.256771 0 0 0 0 0.256771 0 0 0 0.25 0"/>
<feBlend mode="normal" in2="shape" result="effect1_innerShadow_20_40"/>
</filter>
<clipPath id="clip0_20_40">
<rect width="278" height="246" fill="white"/>
</clipPath>
</defs>
</svg>
