<svg xmlns="http://www.w3.org/2000/svg" width="281" height="280" fill="none"><path fill="#444D56" stroke="#fff" stroke-width="3" d="M13.151 120.203c-.002 0 .003-.008.02-.023-.01.016-.018.024-.02.023Zm.07-.061.01-.006.23-.085h.004c.086-.005.223-.006.422.002.396.014.945.06 1.64.136 1.387.152 3.263.417 5.474.762 4.417.69 10.1 1.691 15.724 2.721a1714.446 1714.446 0 0 1 20.313 3.854l1.394.273.367.072.078.015 27.524 7.319.113.03.116.012 24.779 2.598.038.004.039.002.079-1.498-.078 1.498h.001l.006.001.023.001.092.005.357.018 1.355.069a1330.37 1330.37 0 0 0 19.648.844c5.415.186 10.894.325 15.12.322 2.109-.002 3.932-.039 5.287-.127a17.429 17.429 0 0 0 1.737-.182c.233-.04.474-.092.696-.164.165-.053.549-.187.863-.506.321-.326 2.118-1.902 4.743-4.171 2.586-2.235 5.895-5.072 9.158-7.864a6418.161 6418.161 0 0 1 11.772-10.044l.417-.356 49.861 18.875.529.2.529-.199 4.566-1.716.945 47.366.001.028.001.029 1.421 24.547-44.449-2.689-.064-.003-.063.001-68.245 1.663-100.413-73.166-.082-.06-.09-.048v-.001l-.002-.001-.01-.005-.04-.022-.16-.088a109.307 109.307 0 0 1-2.762-1.58c-1.757-1.04-4.014-2.442-6.058-3.91-2.09-1.501-3.79-2.956-4.588-4.089-.255-.362-.34-.583-.368-.687Zm.183-.085.01-.002-.01.002Z"/><path fill="#778693" stroke="#fff" stroke-width="3" d="m15.134 117.452-.578-.102.092-9.852 2.18-12.465.046-.024a8746.442 8746.442 0 0 0 9.032-4.758 9103.675 9103.675 0 0 0 21.509-11.377c7.852-4.168 15.75-8.381 21.77-11.64a612.51 612.51 0 0 0 7.396-4.053c.918-.514 1.668-.944 2.215-1.269.272-.161.504-.304.686-.422.115-.075.328-.213.499-.372.011-.008.03-.022.06-.041.084-.057.21-.136.382-.239.344-.204.823-.475 1.429-.805a245.27 245.27 0 0 1 4.835-2.541c3.93-2.023 9.049-4.593 14.13-7.122a3358.229 3358.229 0 0 1 18.13-8.954l1.981 39.371.042.832.729.404 58.159 32.261-24.672 22.482-43.501-1.931-.077-.012-.449-.067-1.706-.255a3360.376 3360.376 0 0 1-24.677-3.782c-6.783-1.067-13.595-2.169-18.78-3.074-2.595-.453-4.769-.855-6.325-1.177a36.092 36.092 0 0 1-1.803-.41 5.848 5.848 0 0 1-.391-.114 2.466 2.466 0 0 0-.443-.232l-.008-.004a7.184 7.184 0 0 0-.581-.206 28.395 28.395 0 0 0-1.616-.437c-1.3-.32-3.075-.71-5.153-1.141-4.16-.864-9.59-1.908-14.974-2.913a2176.809 2176.809 0 0 0-19.568-3.559Z"/><path fill="#8C9DAC" stroke="#fff" stroke-width="3" d="m110.199 137.034 6.636 14.381-11.177-16.135-.388-.558-.675-.078-26.862-3.069-21.1-6.616 49.386 6.131 3.16.392-1.71-2.686-11.179-17.56 26.524-28.684a522.687 522.687 0 0 1 9.582 4.396c2.707 1.278 5.474 2.622 7.704 3.786a58.613 58.613 0 0 1 2.837 1.564c.794.475 1.227.79 1.379.94.43.422 1.383 1.071 2.513 1.799 1.194.768 2.759 1.731 4.559 2.814 3.6 2.166 8.172 4.832 12.663 7.421a2077.928 2077.928 0 0 0 15.811 9.017l-19.057 16.387-.646.555.146.838 2.323 13.42-5.644-7.987-.424-.6-.735-.032-44.197-1.963-2.461-.109 1.032 2.236ZM224.849 129.859 123.904 79.782l-1.908-37.512 113.492 87.141-10.639.448Z"/><path fill="#778693" stroke="#fff" stroke-width="3" d="m240.58 203.423-29.272-21.44 17.855 9.828 2.472 1.361-.254-2.811-5.218-57.555 12.064-.507 2.353 71.124Z"/><path fill="#343E47" stroke="#fff" stroke-width="3" d="m129.256 187.132.442 2.014 1.78-1.04 29.249-17.087 74.459 33.9-104.26-.547-103.335-76.821 99.499 49.715 2.166 9.866Z"/><path fill="#97AABB" stroke="#fff" stroke-width="3" d="m121.876 69.813.045-3.665.08.842c.24 2.502.464 4.836.644 6.858l.002.022.003.021c.232 1.962.432 3.595.574 4.737l.061.491-1.383.368a949.325 949.325 0 0 1-.084-4.882l.058-4.792Z"/><mask id="a" fill="#fff"><path d="m239.953 130.214-30.963-22.017-30.613-22.468c-20.214-15.241-40.287-30.626-59.637-46.89l1.142.046c-17.352 9.82-35.003 18.833-52.653 27.847-17.603 9.061-35.254 18.075-52.513 28.042C31.756 84.307 49.191 74.74 66.734 65.45c17.523-9.367 35.106-18.505 52.381-28.342l.655-.377.458.451c19.614 15.899 39.427 31.596 59.504 46.929l60.221 46.102Z"/></mask><path fill="#97AABB" d="m239.953 130.214-30.963-22.017-30.613-22.468c-20.214-15.241-40.287-30.626-59.637-46.89l1.142.046c-17.352 9.82-35.003 18.833-52.653 27.847-17.603 9.061-35.254 18.075-52.513 28.042C31.756 84.307 49.191 74.74 66.734 65.45c17.523-9.367 35.106-18.505 52.381-28.342l.655-.377.458.451c19.614 15.899 39.427 31.596 59.504 46.929l60.221 46.102Z"/><path fill="#fff" d="m239.953 130.214-1.739 2.445 3.563-4.827-1.824 2.382Zm-30.963-22.017-1.775 2.419.019.013.018.013 1.738-2.445Zm-30.613-22.468-1.806 2.395.015.012.016.011 1.775-2.418Zm-59.637-46.89.119-2.997-8.764-.35 6.715 5.644 1.93-2.296Zm1.142.046 1.477 2.611 9.17-5.19-10.528-.419-.119 2.998ZM67.229 66.732l-1.365-2.672-.008.005 1.373 2.667ZM14.716 94.774l-1.57-2.556 3.07 5.154-1.5-2.598ZM66.734 65.45l1.404 2.65.01-.005-1.414-2.645Zm52.381-28.342 1.484 2.607.01-.006-1.494-2.601Zm.655-.377 2.104-2.138-1.624-1.598-1.975 1.135 1.495 2.601Zm.458.451-2.104 2.138.103.102.112.09 1.889-2.33Zm59.504 46.929 1.823-2.383-.003-.002-1.82 2.385Zm61.959 43.657-30.962-22.017-3.477 4.89 30.962 22.017 3.477-4.89Zm-30.925-21.99L180.152 83.31l-3.55 4.837 30.613 22.469 3.551-4.837Zm-30.583-22.445c-20.207-15.236-40.226-30.581-59.513-46.791l-3.86 4.593c19.414 16.317 39.539 31.742 59.761 46.988l3.612-4.79Zm-61.562-41.497 1.141.046.239-5.996-1.142-.045-.238 5.995Zm-.217-5.563c-17.286 9.782-34.88 18.767-52.54 27.786l2.73 5.344c17.64-9.01 35.349-18.052 52.765-27.908l-2.955-5.222Zm-52.548 27.79c-17.584 9.052-35.305 18.102-52.64 28.112l3 5.196C33.4 87.449 50.98 78.47 68.602 69.399l-2.746-5.334ZM16.286 97.33c16.96-10.418 34.331-19.95 51.852-29.228l-2.808-5.303c-17.566 9.303-35.065 18.903-52.184 29.419l3.14 5.112Zm51.862-29.234c17.482-9.344 35.13-18.516 52.451-28.38l-2.969-5.214c-17.229 9.811-34.746 18.914-52.31 28.303l2.828 5.291ZM120.61 39.71l.655-.377-2.989-5.202-.655.377 2.989 5.202Zm-2.943-.84.458.451 4.208-4.276-.458-.45-4.208 4.276Zm.673.644c19.631 15.912 39.467 31.628 59.572 46.982l3.641-4.769c-20.048-15.31-39.838-30.99-59.435-46.875l-3.778 4.662Zm59.569 46.98 60.221 46.102 3.648-4.764-60.222-46.103-3.647 4.765Z" mask="url(#a)"/><mask id="b" fill="#fff"><path d="M240.634 206.918a187.261 187.261 0 0 0-13.68-1.434c-4.61-.282-9.197-.54-13.849-.636-9.275-.219-18.559-.334-27.916-.181-18.687.278-37.436 1.004-56.243 2.128l-.315.03-.193-.19c-10.573-6.376-20.46-13.496-30.319-20.645l-29.426-21.698-29.054-22.124-28.822-22.407c19.86 14.154 39.488 28.592 59.178 42.919l29.548 21.477 14.921 10.541c5.004 3.451 9.976 6.982 15.188 10.125l-.512-.107c18.827-1.047 37.62-1.673 56.249-1.554 9.34.057 18.648.195 27.841.788 4.615.229 9.189.645 13.758 1.114 4.57.468 9.074 1.099 13.537 1.917l.109-.063Z"/></mask><path fill="#444D56" d="M240.634 206.918a187.261 187.261 0 0 0-13.68-1.434c-4.61-.282-9.197-.54-13.849-.636-9.275-.219-18.559-.334-27.916-.181-18.687.278-37.436 1.004-56.243 2.128l-.315.03-.193-.19c-10.573-6.376-20.46-13.496-30.319-20.645l-29.426-21.698-29.054-22.124-28.822-22.407c19.86 14.154 39.488 28.592 59.178 42.919l29.548 21.477 14.921 10.541c5.004 3.451 9.976 6.982 15.188 10.125l-.512-.107c18.827-1.047 37.62-1.673 56.249-1.554 9.34.057 18.648.195 27.841.788 4.615.229 9.189.645 13.758 1.114 4.57.468 9.074 1.099 13.537 1.917l.109-.063Z"/><path fill="#fff" d="m240.634 206.918 1.495 2.601 7.583-4.358-8.661-1.214-.417 2.971Zm-13.68-1.434.198-2.994h-.015l-.183 2.994Zm-13.849-.636-.071 2.999.01.001.061-3Zm-27.916-.181.044 3h.005l-.049-3Zm-56.243 2.128-.179-2.995-.056.003-.055.006.29 2.986Zm-.315.03-2.105 2.138.999.984 1.396-.136-.29-2.986Zm-.193-.19 2.104-2.138-.252-.248-.303-.182-1.549 2.568ZM98.119 185.99l-1.78 2.414.01.007.009.007 1.761-2.428Zm-29.426-21.698-1.818 2.387.019.014.018.014 1.78-2.415Zm-29.054-22.124-1.841 2.369.012.009.012.009 1.817-2.387Zm-28.822-22.407 1.741-2.443-3.582 4.811 1.84-2.368Zm59.178 42.919-1.765 2.426v.001l1.765-2.427Zm29.548 21.477-1.764 2.426.017.012.016.012 1.731-2.45Zm14.921 10.541-1.732 2.451.015.01.014.009 1.703-2.47Zm15.188 10.125-.612 2.937 2.161-5.506-1.549 2.569Zm-.512-.107-.167-2.995-.445 5.932.612-2.937Zm56.249-1.554-.019 3 .019-3Zm27.841.788-.193 2.994.022.001.022.001.149-2.996Zm27.295 3.031-.54 2.951 1.081.198.954-.548-1.495-2.601Zm.526-3.034c-4.565-.64-9.18-1.145-13.899-1.457l-.395 5.987c4.55.301 9.017.789 13.461 1.412l.833-5.942Zm-13.914-1.457c-4.614-.283-9.253-.544-13.97-.641l-.123 5.999c4.586.094 9.121.349 13.727.63l.366-5.988Zm-13.961-.641c-9.296-.22-18.624-.336-28.036-.182l.098 6c9.302-.153 18.542-.039 27.796.18l.142-5.998Zm-28.032-.182c-18.734.279-37.528 1.007-56.377 2.133l.357 5.989c18.766-1.121 37.47-1.845 56.109-2.122l-.089-6Zm-56.488 2.142-.315.03.58 5.972.314-.03-.579-5.972Zm2.079.878-.193-.19-4.208 4.277.192.189 4.209-4.276Zm-.748-.62c-10.449-6.302-20.239-13.351-30.107-20.506l-3.522 4.857c9.851 7.143 19.834 14.336 30.53 20.786l3.099-5.137ZM99.9 183.575l-29.427-21.697-3.56 4.829 29.426 21.697 3.56-4.829Zm-29.39-21.669-29.053-22.125-3.635 4.774 29.053 22.124 3.635-4.773ZM41.48 139.8l-28.822-22.408-3.682 4.737 28.822 22.408 3.682-4.737ZM9.076 122.204c19.843 14.143 39.447 28.562 59.154 42.902l3.53-4.852c-19.673-14.315-39.326-28.771-59.202-42.936l-3.482 4.886Zm59.155 42.903 29.548 21.476 3.528-4.853-29.549-21.477-3.527 4.854Zm29.581 21.5 14.92 10.542 3.463-4.901-14.921-10.541-3.462 4.9Zm14.949 10.561c4.955 3.416 10.029 7.02 15.342 10.224l3.098-5.138c-5.111-3.082-9.98-6.541-15.035-10.025l-3.405 4.939Zm17.503 4.718-.512-.106-1.224 5.873.512.107 1.224-5.874Zm-.957 5.826c18.784-1.045 37.513-1.669 56.063-1.55l.038-6c-18.707-.12-37.565.51-56.435 1.559l.334 5.991Zm56.063-1.55c9.331.057 18.566.195 27.667.782l.386-5.988c-9.285-.599-18.666-.737-28.016-.794l-.037 6Zm27.711.784c4.537.226 9.051.635 13.601 1.102l.612-5.969c-4.588-.47-9.222-.892-13.915-1.125l-.298 5.992Zm13.601 1.102a169.62 169.62 0 0 1 13.303 1.884l1.081-5.902a175.757 175.757 0 0 0-13.772-1.951l-.612 5.969Zm15.338 1.534.109-.063-2.99-5.202-.109.063 2.99 5.202Z" mask="url(#b)"/><path fill="#97AABB" stroke="#fff" stroke-width="3" d="m108.018 95.384-3.692 3.852 3.552-4.017.006-.007c3.337-3.825 6.735-7.549 10.155-11.295l.86-.943.503.308-1.423 1.53c-3.304 3.548-6.598 7.086-9.958 10.569l-.003.003Zm14.556-15.25-1.371.31.216-.237.002-.002.44-.48.35.2.003.003.36.207Zm1.581 2.454.943-1.007 10.374 5.948.014.008.015.008 13.429 7.318.004.002a624.286 624.286 0 0 0 27.26 14.204l.011.005c2.733 1.314 5.466 2.649 8.205 3.987 4.842 2.366 9.701 4.739 14.609 7.022l-9.584-3.86a317.005 317.005 0 0 1-14.105-6.258l-.005-.002a697.748 697.748 0 0 1-27.607-13.699c-8.002-4.354-15.846-8.91-23.612-13.624l.049-.052Z"/><mask id="c" fill="#fff"><path d="M111.449 136.182c-8.617-.31-17.172-1.069-25.518-2.474-8.383-1.271-16.566-3.082-24.708-5.081-8.118-1.974-16.22-3.82-24.485-5.259-8.294-1.41-16.698-2.418-25.177-3.158l-.592-.073.046-.578c.317-4.228.739-8.466 1.447-12.705.68-4.211 1.468-8.485 2.85-12.686-1.124 4.228-1.622 8.448-2.015 12.657-.34 4.204-.681 8.408-.836 12.567l-.546-.65c17.254.695 34.108 3.437 50.152 7.822 8.057 2.085 16.183 3.954 24.375 5.661 8.228 1.573 16.518 3.035 24.983 3.933l.024.024Z"/></mask><path fill="#97AABB" d="M111.449 136.182c-8.617-.31-17.172-1.069-25.518-2.474-8.383-1.271-16.566-3.082-24.708-5.081-8.118-1.974-16.22-3.82-24.485-5.259-8.294-1.41-16.698-2.418-25.177-3.158l-.592-.073.046-.578c.317-4.228.739-8.466 1.447-12.705.68-4.211 1.468-8.485 2.85-12.686-1.124 4.228-1.622 8.448-2.015 12.657-.34 4.204-.681 8.408-.836 12.567l-.546-.65c17.254.695 34.108 3.437 50.152 7.822 8.057 2.085 16.183 3.954 24.375 5.661 8.228 1.573 16.518 3.035 24.983 3.933l.024.024Z"/><path fill="#fff" d="m111.449 136.182-.108 2.998 7.713.277-5.501-5.413-2.104 2.138Zm-25.518-2.474.498-2.958-.024-.004-.024-.004-.45 2.966Zm-24.708-5.081.715-2.913-.006-.002-.709 2.915Zm-24.485-5.259.514-2.955-.012-.002-.502 2.957ZM11.56 120.21l-.365 2.977.052.007.052.004.261-2.988Zm-.592-.073-2.99-.242-.233 2.869 2.857.351.366-2.978Zm.046-.578 2.99.242.001-.009.001-.009-2.992-.224Zm1.447-12.705 2.959.494.001-.008.001-.008-2.961-.478Zm2.85-12.686 2.9.77-5.75-1.707 2.85.937Zm-2.015 12.657-2.987-.279-.002.018-.001.018 2.99.243Zm-.836 12.567-2.299 1.929 5.007 5.967.29-7.784-2.998-.112Zm-.546-.65.12-2.998-6.78-.273 4.361 5.199 2.299-1.928Zm50.152 7.822-.79 2.894.019.005.02.006.751-2.905Zm24.375 5.661-.612 2.937.024.005.025.005.563-2.947Zm24.983 3.933 2.104-2.138-.746-.735-1.042-.11-.316 2.983Zm.132-2.974c-8.515-.306-16.936-1.055-25.128-2.434l-.996 5.917c8.5 1.431 17.189 2.2 25.908 2.513l.216-5.996Zm-25.176-2.442c-8.256-1.251-16.34-3.04-24.443-5.028l-1.43 5.827c8.181 2.008 16.463 3.843 24.973 5.133l.9-5.932Zm-24.449-5.03c-8.142-1.98-16.318-3.844-24.68-5.299l-1.029 5.911c8.169 1.422 16.197 3.25 24.29 5.218l1.419-5.83Zm-24.692-5.301c-8.39-1.427-16.877-2.444-25.418-3.19l-.522 5.977c8.416.735 16.737 1.734 24.935 3.128l1.005-5.915Zm-25.313-3.179-.593-.073-.73 5.956.592.072.73-5.955Zm2.032 3.147.047-.578-5.98-.484-.048.578 5.98.484Zm.048-.596c.313-4.183.727-8.321 1.414-12.435l-5.918-.989c-.73 4.366-1.16 8.704-1.48 12.976l5.984.448Zm1.416-12.451c.676-4.183 1.435-8.262 2.739-12.226l-5.7-1.875c-1.46 4.437-2.278 8.906-2.962 13.145l5.923.956Zm-3.01-13.934c-1.191 4.48-1.707 8.906-2.103 13.148l5.974.558c.39-4.177.871-8.19 1.927-12.165l-5.798-1.541Zm-2.106 13.184c-.34 4.193-.687 8.462-.844 12.699l5.996.223c.152-4.083.486-8.222.828-12.437l-5.98-.485Zm4.452 10.882-.546-.65-4.597 3.856.546.651 4.597-3.857Zm-2.965 4.275c17.016.686 33.646 3.391 49.482 7.719l1.582-5.788c-16.252-4.441-33.33-7.22-50.822-7.926l-.242 5.995Zm49.521 7.73c8.11 2.098 16.283 3.978 24.515 5.693l1.224-5.874c-8.152-1.698-16.231-3.557-24.236-5.628l-1.502 5.809Zm24.564 5.703c8.248 1.576 16.636 3.058 25.23 3.97l.632-5.967c-8.337-.884-16.528-2.328-24.736-3.897l-1.126 5.894Zm23.442 3.124.024.024 4.208-4.276-.024-.024-4.208 4.276Z" mask="url(#c)"/><mask id="d" fill="#fff"><path d="M127.93 206.477a236.764 236.764 0 0 1 2.084-22.178l2.243-.062a232.01 232.01 0 0 0-2.066 21.968l-2.237.295-.024-.023Z"/></mask><path fill="#97AABB" d="M127.93 206.477a236.764 236.764 0 0 1 2.084-22.178l2.243-.062a232.01 232.01 0 0 0-2.066 21.968l-2.237.295-.024-.023Z"/><path fill="#fff" d="m127.93 206.477-2.997-.137-.061 1.337.954.938 2.104-2.138Zm2.084-22.178-.083-2.999-2.534.07-.354 2.51 2.971.419Zm2.243-.062 2.971.421.497-3.517-3.55.097.082 2.999Zm-2.066 21.968.392 2.974 2.491-.329.113-2.509-2.996-.136Zm-2.237.295-2.104 2.139 1.044 1.027 1.453-.191-.393-2.975Zm2.973.113c.329-7.232 1.03-14.61 2.057-21.895l-5.941-.838a239.464 239.464 0 0 0-2.11 22.46l5.994.273Zm-.831-19.315 2.244-.062-.165-5.998-2.244.062.165 5.998Zm-.809-3.481a235.03 235.03 0 0 0-2.093 22.252l5.993.272a229.577 229.577 0 0 1 2.041-21.683l-5.941-.841Zm.511 19.414-2.237.295.786 5.949 2.236-.296-.785-5.948Zm.26 1.131-.024-.024-4.208 4.277.024.024 4.208-4.277Z" mask="url(#d)"/><path fill="#97AABB" stroke="#fff" stroke-width="3" d="M208.745 181.691a504.047 504.047 0 0 1 16.452 11.84l.004.003a418.42 418.42 0 0 1 13.513 10.585l.038 1.225c-.977-.789-1.953-1.58-2.929-2.372-3.669-2.973-7.342-5.951-11.1-8.819-5.365-4.145-10.843-8.175-16.354-12.123a553.309 553.309 0 0 0-11.239-7.954 576.743 576.743 0 0 1 11.525 7.554l-.286.4.289-.398.087.059Zm.564-.833-.063-.045 16.39 12.15c-5.359-4.14-10.827-8.163-16.322-12.101l.276-.411-.281.407ZM122.351 159.668c3.148 6.852 5.885 13.977 8.074 21.343l-.763.432-.003.002-.753.423c-2.202-7.244-4.622-14.408-7.311-21.439a482.499 482.499 0 0 0-1.23-3.27c-.802-2.117-1.601-4.227-2.35-6.366l4.336 8.875Zm7.962 26.937.932-.131-.502 1.602-.43-1.471Zm21.931-14.052a707.292 707.292 0 0 1-17.999 10.916c-.092-.337-.185-.674-.279-1.01a819.55 819.55 0 0 1 18.537-10.068l-.259.162Z"/><mask id="e" fill="#fff"><path d="M71.567 101.528c6.943 2.975 13.168 7.115 20.164 10.085 1.812.762 3.725-2.291 1.86-3.049-7.052-2.912-14.752-4.588-21.78-7.476-.254-.08-.494.308-.268.417l.024.023Z"/></mask><path fill="#97AABB" d="M71.567 101.528c6.943 2.975 13.168 7.115 20.164 10.085 1.812.762 3.725-2.291 1.86-3.049-7.052-2.912-14.752-4.588-21.78-7.476-.254-.08-.494.308-.268.417l.024.023Z"/><path fill="#fff" d="m71.567 101.528-2.104 2.139.403.396.52.223 1.18-2.758Zm20.164 10.085-1.173 2.761.01.004 1.163-2.765Zm1.86-3.049-1.144 2.773.008.004.008.003 1.129-2.78Zm-21.78-7.476 1.14-2.775-.12-.05-.123-.038-.897 2.863Zm-.268.417 2.104-2.139-.355-.35-.45-.215-1.3 2.704Zm-1.158 2.781c3.327 1.425 6.5 3.138 9.82 4.927 3.282 1.769 6.707 3.613 10.353 5.161l2.345-5.523c-3.35-1.422-6.535-3.132-9.85-4.919-3.277-1.767-6.688-3.612-10.305-5.161l-2.363 5.515Zm20.182 10.092c2.853 1.2 5.165-.752 6.024-2.141.487-.787.903-1.923.721-3.195-.21-1.47-1.168-2.679-2.592-3.257l-2.257 5.559a1.74 1.74 0 0 1-.691-.535 1.925 1.925 0 0 1-.4-.916c-.073-.511.102-.788.117-.813a.604.604 0 0 1 .28-.229c.23-.108.665-.197 1.125-.004l-2.327 5.531Zm4.17-8.586c-3.673-1.517-7.492-2.702-11.155-3.84-3.71-1.152-7.261-2.255-10.63-3.64l-2.281 5.55c3.659 1.504 7.47 2.684 11.132 3.82 3.706 1.151 7.264 2.26 10.644 3.655l2.29-5.545Zm-22.028-7.567c-1.898-.595-3.262.628-3.75 1.4a3.25 3.25 0 0 0-.489 2.07 3.147 3.147 0 0 0 1.773 2.513l2.6-5.407a2.852 2.852 0 0 1 1.595 2.269 2.75 2.75 0 0 1-.403 1.756c-.36.571-1.478 1.639-3.122 1.124l1.796-5.725Zm-3.27 5.418.024.024 4.208-4.277-.024-.024-4.209 4.277Z" mask="url(#e)"/><mask id="f" fill="#fff"><path d="M102.84 76.358c6.168-.625 12.066.47 17.574 2.203 1.447.46 2.504-2.303.887-2.589-5.979-1.061-12.102-.675-18.412.095-.21.02-.207.307-.025.315l-.024-.024Z"/></mask><path fill="#97AABB" d="M102.84 76.358c6.168-.625 12.066.47 17.574 2.203 1.447.46 2.504-2.303.887-2.589-5.979-1.061-12.102-.675-18.412.095-.21.02-.207.307-.025.315l-.024-.024Z"/><path fill="#fff" d="m102.84 76.358-.303-2.984-6.353.644 4.551 4.479 2.105-2.139Zm17.574 2.203.908-2.86-.008-.002-.9 2.862Zm.887-2.589-.524 2.954h.001l.523-2.954Zm-18.412.095.29 2.986.037-.004.036-.004-.363-2.978Zm-.025.315-.139 2.997 7.83.364-5.587-5.5-2.104 2.14Zm.278 2.961c5.624-.57 11.092.419 16.372 2.08l1.8-5.724c-5.736-1.804-12.065-3.006-18.777-2.325l.605 5.97Zm16.365 2.078c1.411.447 2.72.06 3.632-.593.846-.607 1.394-1.452 1.687-2.258.285-.783.454-1.892.043-3.029-.482-1.331-1.617-2.27-3.045-2.523l-1.046 5.909a1.985 1.985 0 0 1-.907-.433 2.137 2.137 0 0 1-.644-.91c-.2-.554-.082-.947-.04-1.062.049-.137.163-.36.455-.57.357-.255.991-.469 1.68-.25l-1.815 5.719Zm2.318-8.402c-6.429-1.142-12.911-.71-19.299.07l.726 5.956c6.232-.76 11.995-1.1 17.525-.119l1.048-5.907Zm-19.226.062c-1.763.171-2.814 1.63-2.867 3.035-.025.66.157 1.423.68 2.081a3.134 3.134 0 0 0 2.313 1.182l.278-5.994a2.865 2.865 0 0 1 2.725 2.957c-.048 1.255-.996 2.56-2.549 2.71l-.58-5.971Zm2.369 1.163-.024-.024-4.209 4.277.024.023 4.209-4.276Z" mask="url(#f)"/><mask id="g" fill="#fff"><path d="M104.799 68.243c-2.911 6.044-5.29 12.271-8.229 18.344-.309.603.516 1.018.826.415 2.991-6.078 5.939-12.256 7.729-18.608.041-.186-.208-.319-.33-.098l.004-.053Z"/></mask><path fill="#97AABB" d="M104.799 68.243c-2.911 6.044-5.29 12.271-8.229 18.344-.309.603.516 1.018.826.415 2.991-6.078 5.939-12.256 7.729-18.608.041-.186-.208-.319-.33-.098l.004-.053Z"/><path fill="#fff" d="m104.799 68.243 2.99.244-5.693-1.545 2.703 1.301ZM96.57 86.587l2.67 1.368.016-.03.015-.031-2.7-1.307Zm.826.415 2.67 1.368.011-.022.01-.021-2.691-1.325Zm7.729-18.608 2.888.814.023-.083.019-.084-2.93-.647Zm-.33-.098-2.99-.243 5.614 1.696-2.624-1.453Zm-2.699-1.354c-1.487 3.087-2.834 6.213-4.155 9.273-1.33 3.08-2.634 6.096-4.071 9.065l5.4 2.614c1.503-3.104 2.857-6.238 4.18-9.3 1.33-3.083 2.628-6.093 4.052-9.049l-5.406-2.603ZM93.9 85.219a3.51 3.51 0 0 0-.216 2.734 3.45 3.45 0 0 0 1.72 1.974 3.456 3.456 0 0 0 2.59.21 3.52 3.52 0 0 0 2.072-1.767l-5.34-2.736c.25-.489.74-.99 1.466-1.22a2.544 2.544 0 0 1 3.175 1.615c.25.737.123 1.437-.127 1.926l-5.34-2.736Zm6.187 3.108c2.984-6.063 6.051-12.469 7.926-19.119l-5.775-1.628c-1.707 6.054-4.535 12.004-7.534 18.097l5.383 2.65Zm7.968-19.286c.358-1.626-.58-3.102-1.926-3.637a3.16 3.16 0 0 0-2.323-.004 3.22 3.22 0 0 0-1.636 1.443l5.249 2.906a2.777 2.777 0 0 1-1.418 1.235 2.84 2.84 0 0 1-2.087-.003c-1.202-.478-2.036-1.794-1.718-3.233l5.859 1.293Zm-.27-.502.004-.052-5.98-.487-.004.053 5.98.486Z" mask="url(#g)"/><mask id="h" fill="#fff"><path d="M88.565 94.142c-5.578.412-11.543 1.747-16.837 4.764-.546.314-.267 1.042.294.858 5.508-1.787 10.837-3.634 16.442-4.7.582-.109.678-.978.077-.946l.024.024Z"/></mask><path fill="#97AABB" d="M88.565 94.142c-5.578.412-11.543 1.747-16.837 4.764-.546.314-.267 1.042.294.858 5.508-1.787 10.837-3.634 16.442-4.7.582-.109.678-.978.077-.946l.024.024Z"/><path fill="#fff" d="m88.565 94.142.221 2.992 6.601-.487-4.717-4.643-2.105 2.138Zm-16.837 4.764-1.486-2.607-.009.006 1.495 2.6Zm.294.858-.925-2.854-.013.004.938 2.85Zm16.442-4.7-.55-2.949-.01.002.56 2.947Zm.077-.946-.161-2.995-6.789.365 4.846 4.768 2.104-2.138Zm-.197-2.968c-5.87.433-12.306 1.847-18.102 5.15l2.97 5.212c4.794-2.731 10.29-3.988 15.574-4.378l-.442-5.984Zm-18.111 5.155c-1.473.846-2.186 2.603-1.594 4.238.28.772.856 1.488 1.706 1.904.88.43 1.821.428 2.616.166l-1.877-5.699a2.534 2.534 0 0 1 1.896.142c.657.322 1.093.871 1.3 1.445.448 1.237-.13 2.473-1.058 3.006l-2.989-5.202Zm2.715 6.312c5.597-1.815 10.705-3.584 16.077-4.606l-1.121-5.894c-5.838 1.11-11.39 3.036-16.807 4.793l1.851 5.707Zm16.067-4.604c1.792-.335 2.788-1.83 2.918-3.19a3.401 3.401 0 0 0-.776-2.521c-.777-.92-1.86-1.229-2.777-1.18l.322 5.992a2.63 2.63 0 0 1-2.13-.942 2.6 2.6 0 0 1-.612-1.919c.086-.907.744-1.912 1.954-2.138l1.101 5.898Zm-2.578-1.757.024.024 4.209-4.276-.025-.024-4.208 4.276Z" mask="url(#h)"/><mask id="i" fill="#fff"><path d="M68.243 100.469c-11.973 3.197-23.942 6.341-35.912 9.824-.962.302-.71 1.685.276 1.407 11.938-3.402 23.849-7.114 35.73-10.797.296-.107.225-.517-.094-.434Z"/></mask><path fill="#97AABB" d="M68.243 100.469c-11.973 3.197-23.942 6.341-35.912 9.824-.962.302-.71 1.685.276 1.407 11.938-3.402 23.849-7.114 35.73-10.797.296-.107.225-.517-.094-.434Z"/><path fill="#fff" d="m68.243 100.469-.756-2.903-.01.003-.008.002.774 2.898Zm-35.912 9.824-.838-2.881-.03.009-.03.01.898 2.862Zm.276 1.407.815 2.887.008-.002-.823-2.885Zm35.73-10.797.89 2.866.066-.021.067-.024-1.022-2.821Zm-.868-3.332c-11.955 3.192-23.965 6.347-35.976 9.841l1.676 5.762c11.93-3.472 23.857-6.605 35.848-9.806l-1.548-5.797Zm-36.037 9.86a3.805 3.805 0 0 0-2.64 4.342 3.642 3.642 0 0 0 1.591 2.386c.984.636 2.1.693 3.04.428l-1.63-5.774a2.299 2.299 0 0 1 1.85.308c.64.415.947 1.027 1.043 1.534.198 1.045-.389 2.165-1.456 2.5l-1.798-5.724Zm1.997 7.154c11.978-3.413 23.925-7.136 35.797-10.816l-1.776-5.731c-11.893 3.686-23.767 7.386-35.665 10.777l1.644 5.77Zm35.93-10.861a3.257 3.257 0 0 0 2.105-3.687 3.19 3.19 0 0 0-1.475-2.115 3.24 3.24 0 0 0-2.502-.356l1.512 5.806a2.762 2.762 0 0 1-2.12-.319 2.81 2.81 0 0 1-1.302-1.859 2.743 2.743 0 0 1 1.74-3.111l2.043 5.641Z" mask="url(#i)"/><mask id="j" fill="#fff"><path d="M15.433 104.558c-.911 4.494-1.984 9.056-2.713 13.558-.261 1.616.485 3.655 2.45 2.525 1.12-.656.3-2.088-.788-1.513-.162.068.483-6.277.59-6.966.363-2.537.648-5.094.957-7.626.026-.316-.422-.246-.472.046l-.024-.024Z"/></mask><path fill="#97AABB" d="M15.433 104.558c-.911 4.494-1.984 9.056-2.713 13.558-.261 1.616.485 3.655 2.45 2.525 1.12-.656.3-2.088-.788-1.513-.162.068.483-6.277.59-6.966.363-2.537.648-5.094.957-7.626.026-.316-.422-.246-.472.046l-.024-.024Z"/><path fill="#fff" d="m15.433 104.558 2.104-2.138-3.945-3.883-1.1 5.425 2.94.596Zm-2.713 13.558-2.961-.48v.002l2.961.478Zm2.45 2.525 1.495 2.602.01-.007.012-.006-1.517-2.589Zm-.788-1.513 1.16 2.766.124-.052.118-.062-1.402-2.652Zm.59-6.966 2.964.465.004-.021.003-.02-2.97-.424Zm.957-7.626 2.978.364.008-.061.004-.061-2.99-.242Zm-.472.046-2.104 2.138 4.096 4.032.965-5.667-2.957-.503Zm-2.964-.62c-.885 4.366-1.993 9.098-2.734 13.674l5.922.96c.718-4.428 1.755-8.821 2.692-13.442l-5.88-1.192Zm-2.735 13.676c-.205 1.268-.105 3.063.895 4.491.561.802 1.48 1.563 2.77 1.78 1.24.208 2.365-.163 3.242-.666l-2.99-5.203c-.105.061.19-.141.744-.048.607.102.987.464 1.149.695.132.19.126.286.11.192a.97.97 0 0 1 .003-.284l-5.923-.957Zm6.929 5.592c.849-.497 1.559-1.293 1.865-2.341a3.821 3.821 0 0 0-.315-2.905c-.99-1.813-3.268-2.56-5.257-1.509l2.804 5.305a2.036 2.036 0 0 1-1.524.123 2.18 2.18 0 0 1-1.288-1.042 2.181 2.181 0 0 1-.179-1.656c.18-.613.572-.983.861-1.152l3.033 5.177Zm-3.466-6.869a3.002 3.002 0 0 1 3.217.587c.526.498.717 1.046.762 1.175.123.352.145.64.147.658.013.13.008.202.01.137 0-.087.009-.268.027-.555.037-.556.103-1.333.18-2.157a187.101 187.101 0 0 1 .326-3.2l.033-.277.014-.102-5.928-.929c-.072.458-.269 2.323-.42 3.953-.078.84-.15 1.68-.191 2.316-.02.309-.038.618-.041.867-.002.104-.003.306.018.522.005.06.033.381.163.752a3.02 3.02 0 0 0 2.218 1.955 3.01 3.01 0 0 0 1.787-.169l-2.322-5.533Zm4.722-3.775c.367-2.578.66-5.195.964-7.686l-5.956-.728c-.314 2.574-.592 5.069-.948 7.567l5.94.847Zm.976-7.808c.066-.808-.167-1.901-1.105-2.697a3.197 3.197 0 0 0-2.466-.727c-1.205.152-2.566 1.066-2.849 2.724l5.915 1.007c-.232 1.367-1.344 2.1-2.32 2.223a2.805 2.805 0 0 1-2.162-.652 2.815 2.815 0 0 1-.993-2.363l5.98.485Zm-1.358-2.335-.024-.023-4.208 4.276.024.024 4.208-4.277Z" mask="url(#j)"/><path fill="#97AABB" stroke="#fff" stroke-width="3" d="m14.394 121.399.001.001-.001-.001ZM70.511 122.903l.737-.072.392.275m-1.129-.203s-.023.033-.048.078c-.056.097-.121.251.023.237l.055-.006-.03-.309Zm0 0 .392.274.737-.071m0 0s.023-.033.049-.078c.055-.098.12-.252-.023-.238l-.056.006.03.31Z"/><mask id="k" fill="#fff"><path d="M63.363 116.037c2.514 4.631 5.307 9.025 7.769 13.661.408.742 1.699-.087 1.29-.829-2.594-4.597-5.266-9.212-8.529-13.274-.217-.214-.662.142-.502.413l-.028.029Z"/></mask><path fill="#97AABB" d="M63.363 116.037c2.514 4.631 5.307 9.025 7.769 13.661.408.742 1.699-.087 1.29-.829-2.594-4.597-5.266-9.212-8.529-13.274-.217-.214-.662.142-.502.413l-.028.029Z"/><path fill="#fff" d="m63.363 116.037-2.139-2.104-1.558 1.583 1.06 1.953 2.637-1.432Zm7.769 13.661-2.65 1.407.01.02.011.019 2.629-1.446Zm1.29-.829 2.63-1.446-.009-.015-.008-.014-2.612 1.475Zm-8.529-13.274 2.339-1.879-.11-.137-.125-.123-2.104 2.139Zm-.502.413 2.138 2.105 1.618-1.645-1.173-1.986-2.583 1.526Zm-2.665 1.461c1.285 2.366 2.639 4.667 3.951 6.912 1.323 2.259 2.607 4.468 3.805 6.724l5.3-2.814c-1.264-2.379-2.607-4.686-3.926-6.94-1.327-2.27-2.627-4.481-3.857-6.745l-5.273 2.863Zm7.777 13.675a3.53 3.53 0 0 0 2.799 1.831 3.845 3.845 0 0 0 2.403-.611 3.949 3.949 0 0 0 1.521-1.81 3.614 3.614 0 0 0-.175-3.131l-5.257 2.892a2.386 2.386 0 0 1-.119-2.038c.201-.49.521-.79.787-.961a2.158 2.158 0 0 1 1.363-.319c.78.069 1.534.525 1.935 1.255l-5.257 2.892Zm6.532-3.75c-2.589-4.585-5.368-9.401-8.803-13.678l-4.678 3.757c3.09 3.848 5.655 8.263 8.256 12.871l5.225-2.95Zm-9.038-13.938a3.23 3.23 0 0 0-2.621-.907c-.75.081-1.35.403-1.767.742-.64.52-1.987 2.236-.8 4.244l5.165-3.053c1.026 1.737-.179 3.139-.582 3.466-.3.243-.757.499-1.367.565a2.77 2.77 0 0 1-2.236-.78l4.208-4.277Zm-4.744.448-.029.029 4.277 4.209.028-.029-4.276-4.209Z" mask="url(#k)"/><mask id="l" fill="#fff"><path d="M66.075 77.115c9.75-.504 19.438-.56 29.201-1.221.654-.038.735-1.036.081-.999-9.718.423-19.539 1.482-29.27 2.062-.105.01-.117.168-.012.158Z"/></mask><path fill="#97AABB" d="M66.075 77.115c9.75-.504 19.438-.56 29.201-1.221.654-.038.735-1.036.081-.999-9.718.423-19.539 1.482-29.27 2.062-.105.01-.117.168-.012.158Z"/><path fill="#fff" d="m66.075 77.115-.155-2.996-.068.003-.067.007.29 2.986Zm29.201-1.221-.171-2.995h-.016l-.016.002.203 2.993Zm.081-.999.13 2.998.021-.001.02-.001-.17-2.996Zm-29.27 2.062-.178-2.994-.056.003-.056.005.29 2.986Zm.143 3.154c9.479-.49 19.543-.566 29.25-1.224l-.407-5.986c-9.82.666-19.131.7-29.153 1.218l.31 5.992Zm29.218-1.222c2.126-.122 3.235-1.864 3.35-3.28a3.462 3.462 0 0 0-.782-2.5c-.756-.907-1.84-1.265-2.83-1.209l.343 5.99a2.595 2.595 0 0 1-2.12-.938 2.538 2.538 0 0 1-.592-1.828c.074-.917.815-2.14 2.288-2.225l.343 5.99Zm-.221-6.99c-9.65.42-19.88 1.5-29.318 2.064l.357 5.989c10.023-.598 19.436-1.634 29.222-2.06l-.261-5.994Zm-29.43 2.072c-1.745.17-2.686 1.606-2.785 2.83a3.07 3.07 0 0 0 .757 2.28c.75.85 1.776 1.1 2.596 1.02l-.58-5.972a2.937 2.937 0 0 1 3.208 3.157c-.093 1.145-.975 2.498-2.615 2.657l-.58-5.972Z" mask="url(#l)"/><path fill="#97AABB" stroke="#fff" stroke-width="3" d="m121.996 69.782-.002-.006.002.006Z"/></svg>