<svg width="281" height="280" viewBox="0 0 281 280" fill="none" xmlns="http://www.w3.org/2000/svg">
<path d="M13.1512 120.203C13.1495 120.203 13.1543 120.195 13.1703 120.18C13.1608 120.196 13.1528 120.204 13.1512 120.203ZM13.2207 120.142C13.2237 120.14 13.227 120.138 13.2303 120.136L13.4602 120.051C13.4618 120.051 13.4634 120.051 13.4651 120.051C13.5511 120.046 13.6885 120.045 13.8875 120.053C14.2834 120.067 14.8323 120.113 15.5279 120.189C16.9139 120.341 18.79 120.606 21.001 120.951C25.4178 121.641 31.1016 122.642 36.7251 123.672C42.346 124.701 47.896 125.757 52.0415 126.556C54.1141 126.955 55.8351 127.29 57.0379 127.526C57.6393 127.643 58.111 127.736 58.4324 127.799L58.7989 127.871L58.8766 127.886L86.4007 135.205L86.5136 135.235L86.6298 135.247L111.409 137.845L111.447 137.849L111.486 137.851L111.565 136.353C111.486 137.851 111.486 137.851 111.487 137.851L111.488 137.851L111.494 137.852L111.517 137.853L111.609 137.858L111.966 137.876C112.278 137.892 112.737 137.916 113.321 137.945C114.488 138.004 116.157 138.086 118.165 138.18C122.179 138.368 127.55 138.602 132.969 138.789C138.384 138.975 143.863 139.114 148.089 139.111C150.198 139.109 152.021 139.072 153.376 138.984C154.049 138.941 154.643 138.882 155.113 138.802C155.346 138.762 155.587 138.71 155.809 138.638C155.974 138.585 156.358 138.451 156.672 138.132C156.993 137.806 158.79 136.23 161.415 133.961C164.001 131.726 167.31 128.889 170.573 126.097C173.836 123.306 177.052 120.562 179.452 118.517C180.652 117.494 181.649 116.645 182.345 116.053L182.762 115.697L232.623 134.572L233.152 134.772L233.681 134.573L238.247 132.857L239.192 180.223L239.193 180.251L239.194 180.28L240.615 204.827L196.166 202.138L196.102 202.135L196.039 202.136L127.794 203.799L27.3805 130.633L27.2985 130.573L27.2092 130.525L27.2089 130.524L27.2068 130.523L27.1972 130.518L27.1569 130.496C27.1209 130.477 27.0669 130.447 26.9961 130.408C26.8547 130.331 26.6467 130.216 26.3835 130.068C25.857 129.772 25.1105 129.347 24.2345 128.828C22.4777 127.788 20.2209 126.386 18.1774 124.918C16.0868 123.417 14.3864 121.962 13.5894 120.829C13.3344 120.467 13.2498 120.246 13.2207 120.142ZM13.4036 120.057C13.4035 120.056 13.4066 120.056 13.4132 120.055C13.4071 120.056 13.4038 120.057 13.4036 120.057Z" fill="#444D56" stroke="white" stroke-width="3"/>
<path d="M15.1342 117.452C14.9251 117.415 14.7322 117.381 14.5563 117.35L14.6479 107.498L16.8282 95.0327L16.8739 95.0087C17.3294 94.7691 17.9976 94.4176 18.8484 93.9698C20.5502 93.0741 22.9827 91.7931 25.906 90.2515C31.7523 87.1684 39.5621 83.0431 47.4148 78.8743C55.2667 74.7059 63.1645 70.4925 69.1858 67.2339C72.1956 65.6051 74.7419 64.2119 76.5809 63.1812C77.4992 62.6665 78.2495 62.2374 78.7959 61.9124C79.0679 61.7506 79.3003 61.6081 79.4819 61.4901L79.4825 61.4897C79.5975 61.415 79.8098 61.277 79.9808 61.1183C79.9924 61.1099 80.0118 61.0961 80.0407 61.0767C80.1252 61.0201 80.2508 60.9411 80.4233 60.8383C80.7666 60.6336 81.2465 60.3632 81.8518 60.0332C83.0595 59.3748 84.7204 58.504 86.6869 57.492C90.6175 55.4692 95.7355 52.8991 100.817 50.3696C105.896 47.8406 110.934 45.3546 114.702 43.5006C116.42 42.6556 117.874 41.9419 118.947 41.4155L120.928 80.787L120.97 81.6192L121.699 82.0233L179.858 114.284L155.186 136.766L111.685 134.835L111.608 134.823L111.159 134.756C110.765 134.698 110.188 134.611 109.453 134.501C107.983 134.281 105.881 133.966 103.356 133.583C98.3044 132.818 91.558 131.786 84.7762 130.719C77.9927 129.652 71.1809 128.55 65.9959 127.645C63.4014 127.192 61.227 126.79 59.6711 126.468C58.8902 126.306 58.2853 126.169 57.868 126.058C57.6853 126.01 57.5581 125.972 57.4767 125.944C57.2875 125.817 57.1095 125.743 57.034 125.712L57.0263 125.708C56.8523 125.636 56.6518 125.567 56.4447 125.502C56.0262 125.371 55.4757 125.224 54.829 125.065C53.5297 124.745 51.7542 124.355 49.6765 123.924C45.5166 123.06 40.0868 122.016 34.7025 121.011C29.3161 120.004 23.9668 119.034 19.9647 118.315C17.9634 117.956 16.2987 117.659 15.1342 117.452Z" fill="#778693" stroke="white" stroke-width="3"/>
<path d="M110.199 137.034L116.835 151.415L105.658 135.28L105.27 134.722L104.595 134.644L77.7325 131.575L56.6334 124.959L106.019 131.09L109.179 131.482L107.469 128.796L96.2901 111.236L122.814 82.552C123.374 82.8026 124.159 83.1549 125.101 83.5812C127.058 84.4672 129.691 85.6719 132.396 86.9482C135.103 88.2259 137.87 89.5695 140.1 90.7343C141.217 91.3173 142.184 91.8479 142.937 92.2979C143.731 92.7728 144.164 93.0879 144.316 93.2374C144.746 93.6605 145.699 94.3094 146.829 95.0367C148.023 95.8055 149.588 96.7685 151.388 97.8509C154.988 100.017 159.56 102.683 164.051 105.272C168.544 107.862 172.962 110.379 176.257 112.248C177.705 113.07 178.936 113.767 179.862 114.289L160.805 130.676L160.159 131.231L160.305 132.069L162.628 145.489L156.984 137.502L156.56 136.902L155.825 136.87L111.628 134.907L109.167 134.798L110.199 137.034Z" fill="#8C9DAC" stroke="white" stroke-width="3"/>
<path d="M224.849 129.859L123.904 79.7816L121.996 42.2697L235.488 129.411L224.849 129.859Z" fill="#8C9DAC" stroke="white" stroke-width="3"/>
<path d="M240.58 203.423L211.308 181.983L229.163 191.811L231.635 193.172L231.381 190.361L226.163 132.806L238.227 132.299L240.58 203.423Z" fill="#778693" stroke="white" stroke-width="3"/>
<path d="M129.256 187.132L129.698 189.146L131.478 188.106L160.727 171.019L235.186 204.919L130.926 204.372L27.5909 127.551L127.09 177.266L129.256 187.132Z" fill="#343E47" stroke="white" stroke-width="3"/>
<path d="M121.876 69.8127C121.89 68.6357 121.906 67.4079 121.921 66.148C121.948 66.4305 121.975 66.7111 122.001 66.9896C122.241 69.4924 122.465 71.8256 122.645 73.8481L122.647 73.8698L122.65 73.8914C122.882 75.8535 123.082 77.486 123.224 78.6282C123.246 78.8037 123.266 78.9676 123.285 79.1194L121.902 79.4865C121.878 78.3006 121.848 76.6183 121.818 74.6052C121.835 73.1565 121.855 71.5393 121.876 69.8127Z" fill="#97AABB" stroke="white" stroke-width="3"/>
<mask id="path-8-inside-1_20_47" fill="white">
<path d="M239.953 130.214L208.99 108.197L178.377 85.729C158.163 70.488 138.09 55.1029 118.74 38.8396L119.882 38.8851C102.53 48.7041 84.8794 57.7181 67.2287 66.732C49.6262 75.7934 31.9755 84.8073 14.7161 94.7738C31.7557 84.3073 49.1909 74.7408 66.7338 65.4506C84.2569 56.0841 101.84 46.9464 119.115 37.1088L119.77 36.7323L120.228 37.1831C139.842 53.0819 159.655 68.7789 179.732 84.1115L239.953 130.214Z"/>
</mask>
<path d="M239.953 130.214L208.99 108.197L178.377 85.729C158.163 70.488 138.09 55.1029 118.74 38.8396L119.882 38.8851C102.53 48.7041 84.8794 57.7181 67.2287 66.732C49.6262 75.7934 31.9755 84.8073 14.7161 94.7738C31.7557 84.3073 49.1909 74.7408 66.7338 65.4506C84.2569 56.0841 101.84 46.9464 119.115 37.1088L119.77 36.7323L120.228 37.1831C139.842 53.0819 159.655 68.7789 179.732 84.1115L239.953 130.214Z" fill="#97AABB"/>
<path d="M239.953 130.214L238.214 132.659L241.777 127.832L239.953 130.214ZM208.99 108.197L207.215 110.616L207.234 110.629L207.252 110.642L208.99 108.197ZM178.377 85.729L176.571 88.1244L176.586 88.136L176.602 88.1475L178.377 85.729ZM118.74 38.8396L118.859 35.842L110.095 35.4928L116.81 41.1362L118.74 38.8396ZM119.882 38.8851L121.359 41.496L130.529 36.3069L120.001 35.8874L119.882 38.8851ZM67.2287 66.732L65.8643 64.0602L65.8556 64.0647L67.2287 66.732ZM14.7161 94.7738L13.1459 92.2175L16.2163 97.3718L14.7161 94.7738ZM66.7338 65.4506L68.1378 68.1018L68.1481 68.0963L66.7338 65.4506ZM119.115 37.1088L120.599 39.7157L120.609 39.71L119.115 37.1088ZM119.77 36.7323L121.874 34.5941L120.25 32.9962L118.275 34.1311L119.77 36.7323ZM120.228 37.1831L118.124 39.3213L118.227 39.4226L118.339 39.5136L120.228 37.1831ZM179.732 84.1115L181.555 81.7294L181.552 81.7272L179.732 84.1115ZM241.691 127.769L210.729 105.752L207.252 110.642L238.214 132.659L241.691 127.769ZM210.766 105.779L180.152 83.3104L176.602 88.1475L207.215 110.616L210.766 105.779ZM180.183 83.3335C159.976 68.0982 139.957 52.7526 120.67 36.543L116.81 41.1362C136.224 57.4532 156.349 72.8778 176.571 88.1244L180.183 83.3335ZM118.621 41.8372L119.762 41.8827L120.001 35.8874L118.859 35.842L118.621 41.8372ZM118.404 36.2741C101.118 46.0563 83.5243 55.0415 65.8643 64.0602L68.5931 69.4038C86.2346 60.3946 103.943 51.3519 121.359 41.496L118.404 36.2741ZM65.8556 64.0647C48.2724 73.1161 30.551 82.1656 13.2159 92.1759L16.2163 97.3718C33.4 87.449 50.98 78.4706 68.6018 69.3993L65.8556 64.0647ZM16.2863 97.3301C33.2464 86.9124 50.6173 77.3801 68.1378 68.1018L65.3298 62.7994C47.7645 72.1015 30.265 81.7022 13.1459 92.2175L16.2863 97.3301ZM68.1481 68.0963C85.6303 58.7517 103.278 49.5798 120.599 39.7157L117.63 34.5018C100.401 44.3131 82.8836 53.4165 65.3196 62.8048L68.1481 68.0963ZM120.609 39.71L121.264 39.3335L118.275 34.1311L117.62 34.5076L120.609 39.71ZM117.666 38.8705L118.124 39.3213L122.332 35.0449L121.874 34.5941L117.666 38.8705ZM118.339 39.5136C137.97 55.4262 157.806 71.1418 177.911 86.4957L181.552 81.7272C161.504 66.4161 141.714 50.7376 122.117 34.8525L118.339 39.5136ZM177.908 86.4936L238.129 132.596L241.777 127.832L181.555 81.7294L177.908 86.4936Z" fill="white" mask="url(#path-8-inside-1_20_47)"/>
<mask id="path-10-inside-2_20_47" fill="white">
<path d="M240.634 206.918C236.13 206.287 231.589 205.79 226.954 205.484C222.344 205.202 217.757 204.944 213.105 204.848C203.83 204.629 194.546 204.514 185.189 204.667C166.502 204.945 147.753 205.671 128.946 206.795L128.631 206.825L128.438 206.635C117.865 200.259 107.978 193.139 98.1191 185.99L68.6926 164.292L39.6392 142.168L10.8169 119.761C30.6766 133.915 50.3052 148.353 69.9947 162.68L99.5432 184.157L114.464 194.698C119.468 198.149 124.44 201.68 129.652 204.823L129.14 204.716C147.967 203.669 166.76 203.043 185.389 203.162C194.729 203.219 204.037 203.357 213.23 203.95C217.845 204.179 222.419 204.595 226.988 205.064C231.558 205.532 236.062 206.163 240.525 206.981L240.634 206.918Z"/>
</mask>
<path d="M240.634 206.918C236.13 206.287 231.589 205.79 226.954 205.484C222.344 205.202 217.757 204.944 213.105 204.848C203.83 204.629 194.546 204.514 185.189 204.667C166.502 204.945 147.753 205.671 128.946 206.795L128.631 206.825L128.438 206.635C117.865 200.259 107.978 193.139 98.1191 185.99L68.6926 164.292L39.6392 142.168L10.8169 119.761C30.6766 133.915 50.3052 148.353 69.9947 162.68L99.5432 184.157L114.464 194.698C119.468 198.149 124.44 201.68 129.652 204.823L129.14 204.716C147.967 203.669 166.76 203.043 185.389 203.162C194.729 203.219 204.037 203.357 213.23 203.95C217.845 204.179 222.419 204.595 226.988 205.064C231.558 205.532 236.062 206.163 240.525 206.981L240.634 206.918Z" fill="#444D56"/>
<path d="M240.634 206.918L242.129 209.519L249.712 205.161L241.051 203.947L240.634 206.918ZM226.954 205.484L227.152 202.49L227.144 202.49L227.137 202.49L226.954 205.484ZM213.105 204.848L213.034 207.847L213.044 207.848L213.105 204.848ZM185.189 204.667L185.233 207.667L185.238 207.667L185.189 204.667ZM128.946 206.795L128.767 203.8L128.711 203.803L128.656 203.809L128.946 206.795ZM128.631 206.825L126.526 208.963L127.525 209.947L128.921 209.811L128.631 206.825ZM128.438 206.635L130.542 204.497L130.29 204.249L129.987 204.067L128.438 206.635ZM98.1191 185.99L96.3388 188.404L96.3484 188.411L96.358 188.418L98.1191 185.99ZM68.6926 164.292L66.8751 166.679L66.8936 166.693L66.9123 166.707L68.6926 164.292ZM39.6392 142.168L37.7979 144.537L37.8097 144.546L37.8216 144.555L39.6392 142.168ZM10.8169 119.761L12.5581 117.318L8.97557 122.129L10.8169 119.761ZM69.9947 162.68L68.2296 165.106L68.2309 165.107L69.9947 162.68ZM99.5432 184.157L97.7794 186.583L97.7957 186.595L97.8121 186.607L99.5432 184.157ZM114.464 194.698L112.732 197.149L112.747 197.159L112.761 197.168L114.464 194.698ZM129.652 204.823L129.04 207.76L131.201 202.254L129.652 204.823ZM129.14 204.716L128.973 201.721L128.528 207.653L129.14 204.716ZM185.389 203.162L185.37 206.162L185.37 206.162L185.389 203.162ZM213.23 203.95L213.037 206.944L213.059 206.945L213.081 206.946L213.23 203.95ZM240.525 206.981L239.985 209.932L241.066 210.13L242.02 209.582L240.525 206.981ZM241.051 203.947C236.486 203.307 231.871 202.802 227.152 202.49L226.757 208.477C231.307 208.778 235.774 209.266 240.218 209.889L241.051 203.947ZM227.137 202.49C222.523 202.207 217.884 201.946 213.167 201.849L213.044 207.848C217.63 207.942 222.165 208.197 226.771 208.478L227.137 202.49ZM213.176 201.849C203.88 201.629 194.552 201.513 185.14 201.667L185.238 207.667C194.54 207.514 203.78 207.628 213.034 207.847L213.176 201.849ZM185.144 201.667C166.41 201.946 147.616 202.674 128.767 203.8L129.124 209.789C147.89 208.668 166.594 207.944 185.233 207.667L185.144 201.667ZM128.656 203.809L128.341 203.839L128.921 209.811L129.235 209.781L128.656 203.809ZM130.735 204.687L130.542 204.497L126.334 208.774L126.526 208.963L130.735 204.687ZM129.987 204.067C119.538 197.765 109.748 190.716 99.8803 183.561L96.358 188.418C106.209 195.561 116.192 202.754 126.888 209.204L129.987 204.067ZM99.8995 183.575L70.473 161.878L66.9123 166.707L96.3388 188.404L99.8995 183.575ZM70.5102 161.906L41.4567 139.781L37.8216 144.555L66.8751 166.679L70.5102 161.906ZM41.4805 139.8L12.6582 117.392L8.97557 122.129L37.7979 144.537L41.4805 139.8ZM9.07571 122.204C28.9194 136.347 48.5235 150.766 68.2296 165.106L71.7599 160.254C52.0869 145.939 32.4338 131.483 12.5581 117.318L9.07571 122.204ZM68.2309 165.107L97.7794 186.583L101.307 181.73L71.7585 160.253L68.2309 165.107ZM97.8121 186.607L112.732 197.149L116.195 192.248L101.274 181.707L97.8121 186.607ZM112.761 197.168C117.716 200.584 122.79 204.188 128.103 207.392L131.201 202.254C126.09 199.172 121.221 195.713 116.166 192.229L112.761 197.168ZM130.264 201.886L129.752 201.78L128.528 207.653L129.04 207.76L130.264 201.886ZM129.307 207.712C148.091 206.667 166.82 206.043 185.37 206.162L185.408 200.162C166.701 200.042 147.843 200.672 128.973 201.721L129.307 207.712ZM185.37 206.162C194.701 206.219 203.936 206.357 213.037 206.944L213.423 200.956C204.138 200.357 194.757 200.219 185.407 200.162L185.37 206.162ZM213.081 206.946C217.618 207.172 222.132 207.581 226.682 208.048L227.294 202.079C222.706 201.609 218.072 201.187 213.379 200.954L213.081 206.946ZM226.682 208.048C231.179 208.509 235.604 209.129 239.985 209.932L241.066 204.03C236.52 203.197 231.937 202.555 227.294 202.079L226.682 208.048ZM242.02 209.582L242.129 209.519L239.139 204.317L239.03 204.38L242.02 209.582Z" fill="white" mask="url(#path-10-inside-2_20_47)"/>
<path d="M108.018 95.3842L104.326 99.2362L107.878 95.2192L107.884 95.2118C111.221 91.3873 114.619 87.6635 118.039 83.9168C118.326 83.6027 118.613 83.2884 118.899 82.9739L119.402 83.2825C118.927 83.7922 118.453 84.3017 117.979 84.8111C114.675 88.3603 111.381 91.8982 108.021 95.3805L108.018 95.3842ZM122.574 80.1345L121.203 80.4447C121.275 80.3656 121.347 80.2865 121.419 80.2073C121.42 80.2067 121.42 80.206 121.421 80.2053L121.861 79.7244L122.211 79.9259L122.214 79.9279L122.574 80.1345ZM124.155 82.5877L125.098 81.5812L135.472 87.5289L135.486 87.537L135.501 87.5447L148.93 94.8634C148.931 94.8641 148.932 94.8648 148.934 94.8655C157.898 99.8208 166.985 104.555 176.194 109.069L176.194 109.069L176.205 109.074C178.938 110.388 181.671 111.723 184.41 113.061C189.252 115.427 194.111 117.8 199.019 120.083L189.435 116.223C189.433 116.222 189.431 116.221 189.428 116.22C184.668 114.245 179.969 112.16 175.33 109.965L175.325 109.963C165.995 105.592 156.811 101.024 147.718 96.264C139.716 91.9104 131.872 87.3547 124.106 82.64C124.123 82.6226 124.139 82.6051 124.155 82.5877Z" fill="#97AABB" stroke="white" stroke-width="3"/>
<mask id="path-13-inside-3_20_47" fill="white">
<path d="M111.449 136.182C102.832 135.872 94.2772 135.113 85.931 133.708C77.548 132.437 69.3649 130.626 61.223 128.627C53.1052 126.653 45.0029 124.807 36.7376 123.368C28.4439 121.958 20.0395 120.95 11.5614 120.21L10.9685 120.137L11.0154 119.559C11.332 115.331 11.7536 111.093 12.4617 106.854C13.1414 102.643 13.9303 98.3692 15.312 94.1683C14.1884 98.3962 13.6902 102.616 13.297 106.825C12.9563 111.029 12.6155 115.233 12.4606 119.392L11.9146 118.742C29.1688 119.437 46.0229 122.179 62.067 126.564C70.1238 128.649 78.2501 130.518 86.4417 132.225C94.6702 133.798 102.96 135.26 111.425 136.158L111.449 136.182Z"/>
</mask>
<path d="M111.449 136.182C102.832 135.872 94.2772 135.113 85.931 133.708C77.548 132.437 69.3649 130.626 61.223 128.627C53.1052 126.653 45.0029 124.807 36.7376 123.368C28.4439 121.958 20.0395 120.95 11.5614 120.21L10.9685 120.137L11.0154 119.559C11.332 115.331 11.7536 111.093 12.4617 106.854C13.1414 102.643 13.9303 98.3692 15.312 94.1683C14.1884 98.3962 13.6902 102.616 13.297 106.825C12.9563 111.029 12.6155 115.233 12.4606 119.392L11.9146 118.742C29.1688 119.437 46.0229 122.179 62.067 126.564C70.1238 128.649 78.2501 130.518 86.4417 132.225C94.6702 133.798 102.96 135.26 111.425 136.158L111.449 136.182Z" fill="#97AABB"/>
<path d="M111.449 136.182L111.341 139.18L119.054 139.457L113.553 134.044L111.449 136.182ZM85.931 133.708L86.429 130.75L86.4049 130.746L86.3807 130.742L85.931 133.708ZM61.223 128.627L61.938 125.714L61.932 125.712L61.223 128.627ZM36.7376 123.368L37.2521 120.413L37.2404 120.411L36.7376 123.368ZM11.5614 120.21L11.196 123.187L11.2481 123.194L11.3004 123.198L11.5614 120.21ZM10.9685 120.137L7.97835 119.895L7.74578 122.764L10.6032 123.115L10.9685 120.137ZM11.0154 119.559L14.0056 119.801L14.0063 119.792L14.007 119.783L11.0154 119.559ZM12.4617 106.854L15.4207 107.348L15.422 107.34L15.4233 107.332L12.4617 106.854ZM15.312 94.1683L18.2114 94.9388L12.4622 93.231L15.312 94.1683ZM13.297 106.825L10.31 106.546L10.3083 106.564L10.3068 106.582L13.297 106.825ZM12.4606 119.392L10.1622 121.321L15.1686 127.288L15.4585 119.504L12.4606 119.392ZM11.9146 118.742L12.0355 115.744L5.25463 115.471L9.61628 120.67L11.9146 118.742ZM62.067 126.564L61.2761 129.458L61.2958 129.463L61.3155 129.469L62.067 126.564ZM86.4417 132.225L85.8298 135.162L85.8541 135.167L85.8785 135.172L86.4417 132.225ZM111.425 136.158L113.529 134.02L112.783 133.285L111.741 133.175L111.425 136.158ZM111.557 133.184C103.042 132.878 94.6208 132.129 86.429 130.75L85.4331 136.667C93.9336 138.098 102.622 138.867 111.341 139.18L111.557 133.184ZM86.3807 130.742C78.1251 129.491 70.0403 127.702 61.938 125.714L60.5079 131.541C68.6894 133.549 76.9708 135.384 85.4813 136.674L86.3807 130.742ZM61.932 125.712C53.7905 123.732 45.6139 121.868 37.2521 120.413L36.2231 126.324C44.392 127.746 52.4198 129.574 60.5139 131.542L61.932 125.712ZM37.2404 120.411C28.8505 118.984 20.3634 117.967 11.8223 117.221L11.3004 123.198C19.7156 123.933 28.0373 124.932 36.2348 126.326L37.2404 120.411ZM11.9267 117.232L11.3339 117.159L10.6032 123.115L11.196 123.187L11.9267 117.232ZM13.9587 120.379L14.0056 119.801L8.0252 119.317L7.97835 119.895L13.9587 120.379ZM14.007 119.783C14.3203 115.6 14.7336 111.462 15.4207 107.348L9.50265 106.359C8.7736 110.725 8.34375 115.063 8.02377 119.335L14.007 119.783ZM15.4233 107.332C16.0985 103.149 16.8579 99.07 18.1618 95.1057L12.4622 93.231C11.0027 97.6683 10.1842 102.137 9.5 106.376L15.4233 107.332ZM12.4127 93.3978C11.2218 97.8788 10.7062 102.304 10.31 106.546L16.284 107.104C16.6742 102.927 17.155 98.9137 18.2114 94.9388L12.4127 93.3978ZM10.3068 106.582C9.96701 110.775 9.62046 115.044 9.46266 119.281L15.4585 119.504C15.6106 115.421 15.9455 111.282 16.2872 107.067L10.3068 106.582ZM14.7589 117.464L14.213 116.814L9.61628 120.67L10.1622 121.321L14.7589 117.464ZM11.7937 121.739C28.8101 122.425 45.4396 125.13 61.2761 129.458L62.8579 123.67C46.6062 119.229 29.5275 116.45 12.0355 115.744L11.7937 121.739ZM61.3155 129.469C69.4247 131.567 77.598 133.447 85.8298 135.162L87.0536 129.288C78.9022 127.59 70.823 125.731 62.8185 123.66L61.3155 129.469ZM85.8785 135.172C94.127 136.748 102.515 138.23 111.109 139.142L111.741 133.175C103.404 132.291 95.2134 130.847 87.0049 129.278L85.8785 135.172ZM109.321 138.296L109.345 138.32L113.553 134.044L113.529 134.02L109.321 138.296Z" fill="white" mask="url(#path-13-inside-3_20_47)"/>
<mask id="path-15-inside-4_20_47" fill="white">
<path d="M127.93 206.477C128.264 199.145 128.974 191.673 130.014 184.299L132.257 184.237C131.221 191.559 130.52 198.926 130.191 206.205L127.954 206.5L127.93 206.477Z"/>
</mask>
<path d="M127.93 206.477C128.264 199.145 128.974 191.673 130.014 184.299L132.257 184.237C131.221 191.559 130.52 198.926 130.191 206.205L127.954 206.5L127.93 206.477Z" fill="#97AABB"/>
<path d="M127.93 206.477L124.933 206.34L124.872 207.677L125.826 208.615L127.93 206.477ZM130.014 184.299L129.931 181.3L127.397 181.37L127.043 183.88L130.014 184.299ZM132.257 184.237L135.228 184.658L135.725 181.141L132.175 181.238L132.257 184.237ZM130.191 206.205L130.583 209.179L133.074 208.85L133.187 206.341L130.191 206.205ZM127.954 206.5L125.85 208.639L126.894 209.666L128.347 209.475L127.954 206.5ZM130.927 206.613C131.256 199.381 131.957 192.003 132.984 184.718L127.043 183.88C125.99 191.343 125.271 198.91 124.933 206.34L130.927 206.613ZM130.096 187.298L132.34 187.236L132.175 181.238L129.931 181.3L130.096 187.298ZM129.287 183.817C128.238 191.228 127.528 198.69 127.194 206.069L133.187 206.341C133.513 199.162 134.205 191.889 135.228 184.658L129.287 183.817ZM129.798 203.231L127.561 203.526L128.347 209.475L130.583 209.179L129.798 203.231ZM130.058 204.362L130.034 204.338L125.826 208.615L125.85 208.639L130.058 204.362Z" fill="white" mask="url(#path-15-inside-4_20_47)"/>
<path d="M208.745 181.691C214.311 185.535 219.803 189.476 225.197 193.531L225.201 193.534C229.781 196.976 234.29 200.501 238.714 204.119C238.727 204.527 238.74 204.935 238.752 205.344C237.775 204.555 236.799 203.764 235.823 202.972C232.154 199.999 228.481 197.021 224.723 194.153C219.358 190.008 213.88 185.978 208.369 182.03C204.65 179.328 200.904 176.677 197.13 174.076C201.005 176.55 204.849 179.07 208.655 181.63L208.369 182.03L208.658 181.632C208.687 181.652 208.716 181.671 208.745 181.691ZM209.309 180.858C209.288 180.843 209.267 180.828 209.246 180.813L225.636 192.963C220.277 188.823 214.809 184.8 209.314 180.862L209.59 180.451L209.309 180.858Z" fill="#97AABB" stroke="white" stroke-width="3"/>
<path d="M122.351 159.668C125.499 166.52 128.236 173.645 130.425 181.011C130.171 181.155 129.917 181.299 129.662 181.443C129.661 181.444 129.66 181.444 129.659 181.445L128.906 181.868C126.704 174.624 124.284 167.46 121.595 160.429C121.189 159.334 120.777 158.246 120.365 157.159C119.563 155.042 118.764 152.932 118.015 150.793L122.351 159.668ZM130.313 186.605L131.245 186.474L130.743 188.076L130.313 186.605ZM152.244 172.553C146.295 176.283 140.295 179.922 134.245 183.469C134.153 183.132 134.06 182.795 133.966 182.459C140.103 179.016 146.274 175.678 152.503 172.391C152.417 172.445 152.331 172.499 152.244 172.553Z" fill="#97AABB" stroke="white" stroke-width="3"/>
<mask id="path-19-inside-5_20_47" fill="white">
<path d="M71.5669 101.528C78.5103 104.503 84.7346 108.643 91.7305 111.613C93.5429 112.375 95.4564 109.322 93.5915 108.564C86.5389 105.652 78.8394 103.976 71.8109 101.088C71.557 101.008 71.3173 101.396 71.5428 101.505L71.5669 101.528Z"/>
</mask>
<path d="M71.5669 101.528C78.5103 104.503 84.7346 108.643 91.7305 111.613C93.5429 112.375 95.4564 109.322 93.5915 108.564C86.5389 105.652 78.8394 103.976 71.8109 101.088C71.557 101.008 71.3173 101.396 71.5428 101.505L71.5669 101.528Z" fill="#97AABB"/>
<path d="M71.5669 101.528L69.4626 103.667L69.8656 104.063L70.3854 104.286L71.5669 101.528ZM91.7305 111.613L90.5582 114.374L90.5673 114.378L91.7305 111.613ZM93.5915 108.564L92.4465 111.337L92.4547 111.341L92.4628 111.344L93.5915 108.564ZM71.8109 101.088L72.9512 98.3128L72.8318 98.2637L72.7085 98.225L71.8109 101.088ZM71.5428 101.505L73.6471 99.3664L73.292 99.0169L72.8429 98.801L71.5428 101.505ZM70.3854 104.286C73.7123 105.711 76.8854 107.424 80.2055 109.213C83.4872 110.982 86.9118 112.826 90.5582 114.374L92.9028 108.851C89.5533 107.429 86.3678 105.719 83.0525 103.932C79.7757 102.165 76.3649 100.32 72.7484 98.7708L70.3854 104.286ZM90.5673 114.378C93.4202 115.578 95.7318 113.626 96.5913 112.237C97.0783 111.45 97.4943 110.314 97.312 109.042C97.1015 107.572 96.1439 106.363 94.7202 105.785L92.4628 111.344C92.2784 111.269 92.0093 111.109 91.7716 110.809C91.5333 110.509 91.4136 110.178 91.3727 109.893C91.2995 109.382 91.4736 109.105 91.4887 109.08C91.5196 109.03 91.5868 108.937 91.7695 108.851C91.9989 108.743 92.4344 108.654 92.8937 108.847L90.5673 114.378ZM94.7365 105.792C91.0637 104.275 87.2453 103.09 83.5817 101.952C79.8725 100.8 76.3206 99.6974 72.9512 98.3128L70.6705 103.862C74.3296 105.366 78.1418 106.546 81.8026 107.682C85.5091 108.833 89.0667 109.942 92.4465 111.337L94.7365 105.792ZM72.7085 98.225C70.8114 97.6301 69.4468 98.8525 68.9594 99.6256C68.6771 100.073 68.3763 100.797 68.4701 101.695C68.5815 102.76 69.2297 103.721 70.2427 104.208L72.8429 98.801C73.7431 99.2339 74.3367 100.106 74.4376 101.07C74.5209 101.867 74.2536 102.479 74.0348 102.826C73.6743 103.397 72.5565 104.465 70.9132 103.95L72.7085 98.225ZM69.4385 103.643L69.4626 103.667L73.6712 99.3902L73.6471 99.3664L69.4385 103.643Z" fill="white" mask="url(#path-19-inside-5_20_47)"/>
<mask id="path-21-inside-6_20_47" fill="white">
<path d="M102.84 76.3584C109.008 75.733 114.906 76.8283 120.414 78.5611C121.861 79.0201 122.918 76.2585 121.301 75.9724C115.322 74.911 109.199 75.2973 102.889 76.0668C102.679 76.0872 102.682 76.3737 102.864 76.3821L102.84 76.3584Z"/>
</mask>
<path d="M102.84 76.3584C109.008 75.733 114.906 76.8283 120.414 78.5611C121.861 79.0201 122.918 76.2585 121.301 75.9724C115.322 74.911 109.199 75.2973 102.889 76.0668C102.679 76.0872 102.682 76.3737 102.864 76.3821L102.84 76.3584Z" fill="#97AABB"/>
<path d="M102.84 76.3584L102.537 73.3737L96.1844 74.0177L100.735 78.4966L102.84 76.3584ZM120.414 78.5611L121.322 75.7016L121.314 75.6993L120.414 78.5611ZM121.301 75.9724L120.777 78.9262L120.778 78.9265L121.301 75.9724ZM102.889 76.0668L103.179 79.0527L103.216 79.0492L103.252 79.0447L102.889 76.0668ZM102.864 76.3821L102.725 79.3789L110.555 79.7425L104.968 74.2439L102.864 76.3821ZM103.142 79.3431C108.766 78.7729 114.234 79.7618 119.514 81.4228L121.314 75.6993C115.578 73.8948 109.249 72.6931 102.537 73.3737L103.142 79.3431ZM119.507 81.4206C120.918 81.8684 122.227 81.4819 123.139 80.8284C123.985 80.2212 124.533 79.3758 124.826 78.5704C125.111 77.7869 125.28 76.6784 124.869 75.5411C124.387 74.2097 123.252 73.2711 121.824 73.0183L120.778 78.9265C120.535 78.8835 120.198 78.7648 119.871 78.494C119.544 78.2226 119.338 77.8899 119.227 77.5832C119.027 77.0297 119.145 76.6366 119.187 76.5219C119.236 76.3853 119.35 76.1621 119.642 75.9526C119.999 75.6967 120.633 75.4832 121.322 75.7016L119.507 81.4206ZM121.825 73.0186C115.396 71.8773 108.914 72.3098 102.526 73.0888L103.252 79.0447C109.484 78.2848 115.247 77.9447 120.777 78.9262L121.825 73.0186ZM102.599 73.0808C100.836 73.2521 99.7849 74.7106 99.7319 76.1157C99.707 76.7754 99.8892 77.5387 100.412 78.1973C100.979 78.9113 101.822 79.337 102.725 79.3789L103.003 73.3853C103.814 73.423 104.59 73.8097 105.111 74.467C105.589 75.0688 105.75 75.7576 105.728 76.3421C105.68 77.5968 104.732 78.9018 103.179 79.0527L102.599 73.0808ZM104.968 74.2439L104.944 74.2202L100.735 78.4966L100.759 78.5203L104.968 74.2439Z" fill="white" mask="url(#path-21-inside-6_20_47)"/>
<mask id="path-23-inside-7_20_47" fill="white">
<path d="M104.799 68.2434C101.888 74.2872 99.5093 80.514 96.5702 86.5867C96.261 87.1902 97.0863 87.6053 97.3956 87.0017C100.387 80.924 103.335 74.7462 105.125 68.3942C105.166 68.2077 104.917 68.0755 104.795 68.2959L104.799 68.2434Z"/>
</mask>
<path d="M104.799 68.2434C101.888 74.2872 99.5093 80.514 96.5702 86.5867C96.261 87.1902 97.0863 87.6053 97.3956 87.0017C100.387 80.924 103.335 74.7462 105.125 68.3942C105.166 68.2077 104.917 68.0755 104.795 68.2959L104.799 68.2434Z" fill="#97AABB"/>
<path d="M104.799 68.2434L107.789 68.4866L102.096 66.9417L104.799 68.2434ZM96.5702 86.5867L99.2402 87.9546L99.2557 87.9243L99.2706 87.8936L96.5702 86.5867ZM97.3956 87.0017L100.066 88.3697L100.077 88.3482L100.087 88.3266L97.3956 87.0017ZM105.125 68.3942L108.013 69.208L108.036 69.1249L108.055 69.0406L105.125 68.3942ZM104.795 68.2959L101.805 68.0527L107.419 69.7487L104.795 68.2959ZM102.096 66.9417C100.609 70.0291 99.2622 73.1547 97.941 76.2151C96.6115 79.2945 95.3068 82.3108 93.8699 85.2797L99.2706 87.8936C100.773 84.7898 102.127 81.6565 103.45 78.5933C104.78 75.5112 106.078 72.5015 107.502 69.5451L102.096 66.9417ZM93.9003 85.2187C93.4953 86.009 93.3567 86.9876 93.6837 87.9532C93.9957 88.8746 94.6547 89.5506 95.4031 89.927C96.1514 90.3033 97.0788 90.4259 97.9935 90.1379C98.952 89.8362 99.6605 89.1602 100.066 88.3697L94.7256 85.6338C94.976 85.145 95.4654 84.6435 96.1918 84.4148C96.8745 84.1999 97.5569 84.2942 98.0989 84.5667C98.6409 84.8393 99.1322 85.3361 99.3667 86.0288C99.6163 86.7657 99.4905 87.4661 99.2402 87.9546L93.9003 85.2187ZM100.087 88.3266C103.071 82.264 106.138 75.8584 108.013 69.208L102.238 67.5803C100.531 73.6341 97.703 79.5839 94.704 85.6769L100.087 88.3266ZM108.055 69.0406C108.413 67.4145 107.475 65.9392 106.129 65.4044C105.43 65.127 104.6 65.0881 103.806 65.4C103.008 65.7139 102.477 66.2889 102.17 66.8431L107.419 69.7487C107.174 70.1927 106.72 70.7016 106.001 70.9841C105.287 71.2646 104.539 71.2291 103.914 70.9806C102.712 70.5033 101.878 69.1873 102.196 67.7478L108.055 69.0406ZM107.785 68.5391L107.789 68.4866L101.809 68.0002L101.805 68.0527L107.785 68.5391Z" fill="white" mask="url(#path-23-inside-7_20_47)"/>
<mask id="path-25-inside-8_20_47" fill="white">
<path d="M88.5652 94.1419C82.9873 94.5535 77.0221 95.889 71.7275 98.9059C71.1815 99.2197 71.4608 99.9485 72.0225 99.7636C77.5296 97.9773 82.8595 96.13 88.4645 95.064C89.046 94.9554 89.1425 94.0858 88.5411 94.1181L88.5652 94.1419Z"/>
</mask>
<path d="M88.5652 94.1419C82.9873 94.5535 77.0221 95.889 71.7275 98.9059C71.1815 99.2197 71.4608 99.9485 72.0225 99.7636C77.5296 97.9773 82.8595 96.13 88.4645 95.064C89.046 94.9554 89.1425 94.0858 88.5411 94.1181L88.5652 94.1419Z" fill="#97AABB"/>
<path d="M88.5652 94.1419L88.786 97.1337L95.3873 96.6466L90.6696 92.0037L88.5652 94.1419ZM71.7275 98.9059L70.2423 96.2994L70.233 96.3047L71.7275 98.9059ZM72.0225 99.7636L71.0968 96.9099L71.0843 96.9141L72.0225 99.7636ZM88.4645 95.064L87.9135 92.115L87.904 92.1169L88.4645 95.064ZM88.5411 94.1181L88.3799 91.1225L81.5914 91.4877L86.4368 96.2563L88.5411 94.1181ZM88.3445 91.15C82.4731 91.5833 76.0377 92.9971 70.2423 96.2994L73.2128 101.512C78.0065 98.781 83.5015 97.5237 88.786 97.1337L88.3445 91.15ZM70.233 96.3047C68.7598 97.1512 68.0472 98.9085 68.6387 100.543C68.9181 101.315 69.4946 102.031 70.3454 102.447C71.2248 102.877 72.166 102.875 72.9606 102.613L71.0843 96.9141C71.5981 96.7449 72.2938 96.7211 72.9799 97.0564C73.6375 97.3777 74.0729 97.9272 74.2805 98.5007C74.7285 99.7384 74.1493 100.974 73.2221 101.507L70.233 96.3047ZM72.9481 102.617C78.5447 100.802 83.6528 99.0329 89.0249 98.0112L87.904 92.1169C82.0662 93.2271 76.5145 95.1527 71.0968 96.91L72.9481 102.617ZM89.0154 98.013C90.8067 97.6784 91.803 96.1839 91.9328 94.8231C92.0003 94.1154 91.8653 93.1408 91.1568 92.3016C90.3804 91.382 89.2963 91.0732 88.3799 91.1225L88.7023 97.1138C88.0866 97.1469 87.216 96.9346 86.5724 96.1724C85.9967 95.4906 85.9141 94.7341 85.9599 94.2533C86.0464 93.3464 86.7037 92.3411 87.9135 92.1151L89.0154 98.013ZM86.4368 96.2563L86.4609 96.2801L90.6696 92.0037L90.6454 91.9799L86.4368 96.2563Z" fill="white" mask="url(#path-25-inside-8_20_47)"/>
<mask id="path-27-inside-9_20_47" fill="white">
<path d="M68.2429 100.469C56.2699 103.666 44.3011 106.81 32.3309 110.293C31.3693 110.595 31.6217 111.978 32.6074 111.7C44.5449 108.298 56.4556 104.586 68.3379 100.903C68.6329 100.796 68.562 100.386 68.2429 100.469Z"/>
</mask>
<path d="M68.2429 100.469C56.2699 103.666 44.3011 106.81 32.3309 110.293C31.3693 110.595 31.6217 111.978 32.6074 111.7C44.5449 108.298 56.4556 104.586 68.3379 100.903C68.6329 100.796 68.562 100.386 68.2429 100.469Z" fill="#97AABB"/>
<path d="M68.2429 100.469L67.4866 97.5663L67.4778 97.5686L67.4691 97.5709L68.2429 100.469ZM32.3309 110.293L31.4928 107.412L31.4623 107.421L31.4321 107.431L32.3309 110.293ZM32.6074 111.7L33.4224 114.587L33.4295 114.585L32.6074 111.7ZM68.3379 100.903L69.2261 103.769L69.2934 103.748L69.3597 103.724L68.3379 100.903ZM67.4691 97.5709C55.5136 100.763 43.5035 103.918 31.4928 107.412L33.1691 113.174C45.0988 109.702 57.0262 106.569 69.0167 103.368L67.4691 97.5709ZM31.4321 107.431C29.403 108.068 28.4613 110.031 28.7914 111.773C28.9537 112.629 29.4482 113.554 30.3835 114.159C31.367 114.795 32.4838 114.852 33.4224 114.587L31.7924 108.813C32.2381 108.687 32.9537 108.675 33.6427 109.121C34.2835 109.536 34.5902 110.148 34.6864 110.655C34.8843 111.7 34.2973 112.82 33.2297 113.155L31.4321 107.431ZM33.4295 114.585C45.4072 111.172 57.3539 107.449 69.2261 103.769L67.4497 98.0378C55.5573 101.724 43.6827 105.424 31.7852 108.815L33.4295 114.585ZM69.3597 103.724C70.8735 103.176 71.7755 101.62 71.4644 100.037C71.3108 99.2551 70.84 98.4374 69.9889 97.9216C69.1184 97.3939 68.1897 97.3831 67.4866 97.5663L68.9993 103.372C68.4556 103.514 67.6556 103.523 66.8788 103.053C66.1216 102.594 65.7098 101.87 65.577 101.194C65.3073 99.8212 66.0973 98.5242 67.3161 98.0827L69.3597 103.724Z" fill="white" mask="url(#path-27-inside-9_20_47)"/>
<mask id="path-29-inside-10_20_47" fill="white">
<path d="M15.4328 104.558C14.5219 109.052 13.4493 113.614 12.72 118.116C12.4589 119.732 13.2047 121.771 15.1705 120.641C16.2909 119.985 15.4699 118.553 14.3821 119.128C14.2204 119.196 14.8648 112.851 14.9726 112.162C15.3345 109.625 15.6198 107.068 15.9292 104.536C15.9548 104.22 15.5066 104.29 15.4569 104.582L15.4328 104.558Z"/>
</mask>
<path d="M15.4328 104.558C14.5219 109.052 13.4493 113.614 12.72 118.116C12.4589 119.732 13.2047 121.771 15.1705 120.641C16.2909 119.985 15.4699 118.553 14.3821 119.128C14.2204 119.196 14.8648 112.851 14.9726 112.162C15.3345 109.625 15.6198 107.068 15.9292 104.536C15.9548 104.22 15.5066 104.29 15.4569 104.582L15.4328 104.558Z" fill="#97AABB"/>
<path d="M15.4328 104.558L17.5371 102.42L13.5922 98.5373L12.4926 103.962L15.4328 104.558ZM12.72 118.116L9.75858 117.636L9.75841 117.638L12.72 118.116ZM15.1705 120.641L16.665 123.243L16.6759 123.236L16.6867 123.23L15.1705 120.641ZM14.3821 119.128L15.5429 121.894L15.6659 121.842L15.7838 121.78L14.3821 119.128ZM14.9726 112.162L17.9365 112.627L17.9397 112.606L17.9426 112.586L14.9726 112.162ZM15.9292 104.536L18.9071 104.9L18.9145 104.839L18.9194 104.778L15.9292 104.536ZM15.4569 104.582L13.3526 106.72L17.4492 110.752L18.4143 105.085L15.4569 104.582ZM12.4926 103.962C11.6076 108.328 10.5 113.06 9.75858 117.636L15.6814 118.596C16.3987 114.168 17.4363 109.775 18.373 105.154L12.4926 103.962ZM9.75841 117.638C9.55332 118.906 9.65291 120.701 10.6528 122.129C11.2141 122.931 12.1329 123.692 13.4239 123.909C14.6633 124.117 15.7879 123.746 16.665 123.243L13.6759 118.04C13.5701 118.101 13.8643 117.899 14.4192 117.992C15.0257 118.094 15.4057 118.456 15.5675 118.687C15.7004 118.877 15.6939 118.973 15.6788 118.879C15.6668 118.803 15.6655 118.694 15.6815 118.595L9.75841 117.638ZM16.6867 123.23C17.536 122.733 18.246 121.937 18.5525 120.889C18.8509 119.868 18.6979 118.828 18.2371 117.984C17.2464 116.171 14.9694 115.424 12.9803 116.475L15.7838 121.78C15.4348 121.965 14.8798 122.089 14.2604 121.903C13.6769 121.728 13.2293 121.333 12.9717 120.861C12.712 120.386 12.6222 119.791 12.7934 119.205C12.9727 118.592 13.3652 118.222 13.6542 118.053L16.6867 123.23ZM13.2213 116.361C13.7009 116.16 14.3223 116.05 15.0005 116.193C15.6585 116.333 16.1358 116.662 16.4382 116.948C16.9638 117.446 17.155 117.994 17.2003 118.123C17.3235 118.475 17.3454 118.763 17.347 118.781C17.3596 118.911 17.3554 118.983 17.3563 118.918C17.3575 118.831 17.3655 118.65 17.3845 118.363C17.4212 117.807 17.487 117.03 17.5635 116.206C17.6394 115.387 17.7237 114.544 17.7955 113.866C17.8314 113.527 17.8637 113.233 17.8899 113.006C17.903 112.893 17.9141 112.8 17.923 112.729C17.9328 112.651 17.9371 112.623 17.9365 112.627L12.0088 111.698C11.937 112.156 11.7404 114.021 11.5891 115.651C11.5112 116.491 11.4395 117.331 11.3975 117.967C11.3771 118.276 11.3604 118.585 11.3569 118.834C11.3555 118.938 11.3539 119.14 11.3747 119.356C11.3805 119.416 11.4079 119.737 11.5382 120.108C11.587 120.248 11.7821 120.802 12.3119 121.304C12.6165 121.593 13.096 121.923 13.7564 122.063C14.4369 122.207 15.0607 122.096 15.5429 121.894L13.2213 116.361ZM17.9426 112.586C18.3101 110.008 18.6027 107.391 18.9071 104.9L12.9513 104.172C12.6369 106.746 12.3589 109.241 12.0027 111.739L17.9426 112.586ZM18.9194 104.778C18.9849 103.97 18.7523 102.877 17.814 102.081C16.9634 101.36 15.9879 101.274 15.3477 101.354C14.1429 101.506 12.7819 102.42 12.4995 104.078L18.4143 105.085C18.1816 106.452 17.0696 107.185 16.0948 107.308C15.5698 107.374 14.7046 107.312 13.9323 106.656C13.0725 105.927 12.8863 104.944 12.939 104.293L18.9194 104.778ZM17.5612 102.443L17.5371 102.42L13.3285 106.696L13.3526 106.72L17.5612 102.443Z" fill="white" mask="url(#path-29-inside-10_20_47)"/>
<path d="M14.3939 121.399C14.3939 121.399 14.3944 121.399 14.3953 121.4L14.3939 121.399Z" fill="#97AABB" stroke="white" stroke-width="3"/>
<path d="M70.5112 122.903L71.2484 122.831C71.3626 122.911 71.4925 123.002 71.6402 123.106M70.5112 122.903C70.5112 122.903 70.488 122.936 70.4626 122.981C70.4626 122.981 70.4626 122.981 70.4626 122.981C70.4073 123.078 70.3417 123.232 70.4857 123.218L70.5413 123.212L70.5112 122.903ZM70.5112 122.903C70.6589 123.006 70.7888 123.097 70.903 123.177L71.6402 123.106M71.6402 123.106C71.6402 123.106 71.6634 123.073 71.6888 123.028C71.6888 123.028 71.6888 123.028 71.6888 123.028C71.7441 122.93 71.8097 122.776 71.6657 122.79L71.61 122.796L71.6402 123.106Z" fill="#97AABB" stroke="white" stroke-width="3"/>
<mask id="path-33-inside-11_20_47" fill="white">
<path d="M63.3626 116.037C65.8767 120.668 68.6703 125.062 71.1319 129.698C71.5403 130.44 72.831 129.611 72.4226 128.869C69.8276 124.272 67.1561 119.657 63.8931 115.595C63.6761 115.381 63.2307 115.737 63.391 116.008L63.3626 116.037Z"/>
</mask>
<path d="M63.3626 116.037C65.8767 120.668 68.6703 125.062 71.1319 129.698C71.5403 130.44 72.831 129.611 72.4226 128.869C69.8276 124.272 67.1561 119.657 63.8931 115.595C63.6761 115.381 63.2307 115.737 63.391 116.008L63.3626 116.037Z" fill="#97AABB"/>
<path d="M63.3626 116.037L61.2244 113.933L59.6661 115.516L60.7261 117.469L63.3626 116.037ZM71.1319 129.698L68.4823 131.105L68.4927 131.125L68.5034 131.144L71.1319 129.698ZM72.4226 128.869L75.0511 127.423L75.0432 127.408L75.035 127.394L72.4226 128.869ZM63.8931 115.595L66.232 113.716L66.1223 113.579L65.9974 113.456L63.8931 115.595ZM63.391 116.008L65.5292 118.113L67.1474 116.468L65.9738 114.482L63.391 116.008ZM60.7261 117.469C62.0108 119.835 63.3646 122.136 64.6775 124.381C65.9996 126.64 67.2841 128.849 68.4823 131.105L73.7815 128.291C72.5181 125.912 71.175 123.605 69.8564 121.351C68.5286 119.081 67.2285 116.87 65.999 114.606L60.7261 117.469ZM68.5034 131.144C69.1092 132.245 70.1779 132.876 71.3018 132.975C72.2861 133.061 73.1268 132.736 73.7051 132.364C74.2934 131.986 74.885 131.386 75.2262 130.554C75.5984 129.647 75.6413 128.496 75.0511 127.423L69.7941 130.315C69.4081 129.613 69.4428 128.844 69.6751 128.277C69.8764 127.787 70.1964 127.487 70.462 127.316C70.7177 127.152 71.1847 126.941 71.8248 126.997C72.6046 127.066 73.3588 127.522 73.7604 128.252L68.5034 131.144ZM75.035 127.394C72.4464 122.809 69.6673 117.993 66.232 113.716L61.5541 117.473C64.6448 121.321 67.2088 125.736 69.8102 130.344L75.035 127.394ZM65.9974 113.456C65.2026 112.674 64.1937 112.46 63.376 112.549C62.6266 112.63 62.0267 112.952 61.6088 113.291C60.9692 113.811 59.6219 115.527 60.8082 117.535L65.9738 114.482C66.9997 116.219 65.7951 117.621 65.3923 117.948C65.0928 118.191 64.6349 118.447 64.0251 118.513C63.3469 118.587 62.4751 118.408 61.7888 117.733L65.9974 113.456ZM61.2528 113.904L61.2244 113.933L65.5008 118.142L65.5292 118.113L61.2528 113.904Z" fill="white" mask="url(#path-33-inside-11_20_47)"/>
<mask id="path-35-inside-12_20_47" fill="white">
<path d="M66.0747 77.1149C75.8251 76.6107 85.5131 76.5558 95.2763 75.8939C95.9301 75.8565 96.011 74.8581 95.3572 74.8955C85.6394 75.3183 75.818 76.3768 66.0875 76.9572C65.9825 76.9674 65.9697 77.1251 66.0747 77.1149Z"/>
</mask>
<path d="M66.0747 77.1149C75.8251 76.6107 85.5131 76.5558 95.2763 75.8939C95.9301 75.8565 96.011 74.8581 95.3572 74.8955C85.6394 75.3183 75.818 76.3768 66.0875 76.9572C65.9825 76.9674 65.9697 77.1251 66.0747 77.1149Z" fill="#97AABB"/>
<path d="M66.0747 77.1149L65.9198 74.1189L65.8521 74.1224L65.7846 74.1289L66.0747 77.1149ZM95.2763 75.8939L95.1047 72.8989L95.089 72.8998L95.0734 72.9008L95.2763 75.8939ZM95.3572 74.8955L95.4876 77.8927L95.5082 77.8918L95.5288 77.8906L95.3572 74.8955ZM66.0875 76.9572L65.9088 73.9625L65.853 73.9659L65.7974 73.9713L66.0875 76.9572ZM66.2296 80.1109C75.7086 79.6207 85.7726 79.545 95.4792 78.8871L95.0734 72.9008C85.2535 73.5665 75.9416 73.6007 65.9198 74.1189L66.2296 80.1109ZM95.4478 78.889C97.5742 78.7672 98.6825 77.0253 98.7973 75.609C98.8563 74.8814 98.6989 73.9278 98.0165 73.1093C97.2598 72.2018 96.1763 71.8437 95.1856 71.9004L95.5288 77.8906C94.865 77.9286 94.0165 77.6813 93.4081 76.9516C92.874 76.311 92.7781 75.6023 92.8169 75.1242C92.8912 74.2072 93.6321 72.9832 95.1047 72.8989L95.4478 78.889ZM95.2268 71.8983C85.5768 72.3182 75.3471 73.3995 65.9088 73.9625L66.2661 79.9519C76.2889 79.354 85.702 78.3184 95.4876 77.8927L95.2268 71.8983ZM65.7974 73.9713C64.0519 74.1408 63.1114 75.5772 63.0122 76.8012C62.9612 77.4299 63.0956 78.3189 63.7685 79.0812C64.5194 79.9319 65.5452 80.1804 66.3648 80.1008L65.7846 74.1289C66.5517 74.0544 67.5398 74.287 68.2668 75.1107C68.9159 75.846 69.0403 76.6969 68.9925 77.2861C68.8997 78.4313 68.018 79.7838 66.3776 79.9431L65.7974 73.9713Z" fill="white" mask="url(#path-35-inside-12_20_47)"/>
<path d="M121.996 69.7822C121.994 69.7785 121.994 69.7764 121.994 69.7763C121.994 69.7762 121.994 69.7781 121.996 69.7822Z" fill="#97AABB" stroke="white" stroke-width="3"/>
</svg>
