<svg xmlns="http://www.w3.org/2000/svg" width="236" height="278" fill="none"><g filter="url(#a)"><path fill="url(#b)" d="M104.513 9.188 86.559 151.507 28.13 134.896 104.513 9.188Z"/><path fill="url(#c)" d="m104.513 9.188 42.898 144.744-60.853-2.425 17.955-142.32Z"/><path fill="url(#d)" d="m104.513 9.188 99.045 127.478-56.147 17.266L104.513 9.188Z"/><path stroke="#fff" stroke-width="3" d="m105.722 8.272-1.347-1.734-1.158 1.906-76.382 125.708-1 1.646 1.85.526 58.427 16.611.175.05.181.007 60.853 2.426.264.01.253-.078 56.147-17.266 2.095-.644-1.313-1.69L105.722 8.272Z"/><path fill="url(#e)" stroke="#fff" stroke-width="3" d="m204.836 137.439 2.166-3.376-3.879 1.193-56.142 17.264-1.083.334-.003 1.103-.17 70.492-.012 5.128 2.812-4.381 56.311-87.757Z"/><path fill="url(#f)" stroke="#fff" stroke-width="3" d="m146.722 225.829 5.065 1.693-3.367-4.047-60.673-72.917-1.027-1.235-1.196 1.124-41.303 38.829-1.797 1.689 2.322.776 101.976 34.088Z"/><path fill="url(#g)" stroke="#fff" stroke-width="3" d="m146.059 225.345 2.69 3.234.011-4.125.174-70.492.003-1.443-1.486-.059-60.847-2.428-3.32-.132 2.103 2.526 60.672 72.919Z"/><path fill="url(#h)" stroke="#fff" stroke-width="3" d="m87.62 152.597 1.896-1.791-2.556-.727-58.437-16.616-2.649-.753.813 2.601 17.328 55.418.73 2.335 1.765-1.666 41.11-38.801Z"/><path stroke="#fff" stroke-width="3" d="M89.833 175.319c13.128.03 23.796-10.193 23.827-22.833.031-12.64-10.586-22.911-23.714-22.941-13.128-.03-23.796 10.192-23.827 22.832"/></g><defs><linearGradient id="b" x1="84.406" x2="56.217" y1="62.243" y2="216.822" gradientUnits="userSpaceOnUse"><stop offset=".221" stop-color="#B9F2FF"/><stop offset=".813" stop-color="#fff"/><stop offset=".964" stop-color="#B9F2FF" stop-opacity=".195"/><stop offset="1" stop-color="#B9F2FF" stop-opacity="0"/></linearGradient><linearGradient id="c" x1="103.226" x2="101.8" y1="141.933" y2="-5.464" gradientUnits="userSpaceOnUse"><stop stop-color="#B9F2FF"/><stop offset="1" stop-color="#fff"/></linearGradient><linearGradient id="d" x1="159.516" x2="147.841" y1="30.299" y2="155.392" gradientUnits="userSpaceOnUse"><stop offset=".388" stop-color="#B9F2FF"/><stop offset="1" stop-color="#fff"/></linearGradient><linearGradient id="e" x1="189.735" x2="98.464" y1="149.454" y2="154.166" gradientUnits="userSpaceOnUse"><stop stop-color="#B9F2FF"/><stop offset="1" stop-color="#fff"/></linearGradient><linearGradient id="f" x1="110.674" x2="65.643" y1="206.491" y2="118.002" gradientUnits="userSpaceOnUse"><stop offset=".14" stop-color="#B9F2FF"/><stop offset="1" stop-color="#fff"/></linearGradient><linearGradient id="g" x1="83.126" x2="201.981" y1="196.816" y2="110.938" gradientUnits="userSpaceOnUse"><stop offset=".194" stop-color="#B9F2FF"/><stop offset=".794" stop-color="#fff"/></linearGradient><linearGradient id="h" x1="9.531" x2="101.744" y1="158.197" y2="152.008" gradientUnits="userSpaceOnUse"><stop offset=".202" stop-color="#B9F2FF"/><stop offset="1" stop-color="#fff"/></linearGradient><filter id="a" width="232.947" height="276.811" x=".53" y=".899" color-interpolation-filters="sRGB" filterUnits="userSpaceOnUse"><feFlood flood-opacity="0" result="BackgroundImageFix"/><feColorMatrix in="SourceAlpha" result="hardAlpha" values="0 0 0 0 0 0 0 0 0 0 0 0 0 0 0 0 0 0 127 0"/><feOffset dy="20"/><feGaussianBlur stdDeviation="11.5"/><feComposite in2="hardAlpha" operator="out"/><feColorMatrix values="0 0 0 0 1 0 0 0 0 1 0 0 0 0 1 0 0 0 0.25 0"/><feBlend in2="BackgroundImageFix" result="effect1_dropShadow_10_2"/><feBlend in="SourceGraphic" in2="effect1_dropShadow_10_2" result="shape"/></filter></defs></svg>