<svg xmlns="http://www.w3.org/2000/svg" version="1.1" xmlns:xlink="http://www.w3.org/1999/xlink" xmlns:svgjs="http://svgjs.dev/svgjs" viewBox="0 0 800 800" opacity="1"><defs><linearGradient x1="50%" y1="0%" x2="50%" y2="100%" id="gggyrate-grad"><stop stop-color="hsl(184, 1%, 24%)" stop-opacity="1" offset="0%"></stop><stop stop-color="hsl(0, 0%, 86%)" stop-opacity="1" offset="100%"></stop></linearGradient></defs><g stroke-width="8" stroke="url(#gggyrate-grad)" fill="none"><path d="M344.9593205656804 -393.83477102897064C379.01847411536005 -413.4952908220307 420.9814648494837 -413.4952908220307 455.04061839916335 -393.82926696407895L1059.9593662537188 -44.57983739267934C1094.0185198033987 -24.919317599619262 1115.0000151704605 11.424022880105213 1115.0000151704605 50.7505665311171V749.2494256739164C1115.0000151704605 788.5759693249286 1094.0185198033987 824.919309804653 1059.9593662537188 844.5853336626044L455.04061839916335 1193.8347632340042C420.9814648494837 1213.4952830270643 379.01847411536005 1213.4952830270643 344.9593205656804 1193.8292591691127L-259.95942728887525 844.5798295977129C-294.01858083855484 824.919309804653 -315.0000762056168 788.5759693249286 -315.0000762056168 749.2494256739164V50.7505665311171C-315.0000762056168 11.424022880105213 -294.01858083855484 -24.919317599619262 -259.95942728887525 -44.58534145757085L344.9593205656804 -393.83477102897064Z " transform="rotate(253, 400, 400)"></path><path d="M347.46116824371404 -357.7513820559741C379.97217845022647 -376.51824185844055 420.0277605146173 -376.51824185844055 452.5387707211297 -357.74612817585023L1029.9612118550237 -24.37167267587779C1062.4722220615358 -5.604812873411447 1082.5000130937315 29.086557584507318 1082.5000130937315 66.6255310695642V733.3744420695089C1082.5000130937315 770.913415554566 1062.4722220615358 805.6047860124845 1029.9612118550237 824.3768996950748L452.5387707211297 1157.7513551950472C420.0277605146173 1176.5182149975137 379.97217845022647 1176.5182149975137 347.46116824371404 1157.7461013149234L-229.96127289017994 824.3716458149511C-262.47228309669225 805.6047860124845 -282.5000741288877 770.913415554566 -282.5000741288877 733.3744420695089V66.6255310695642C-282.5000741288877 29.086557584507318 -262.47228309669225 -5.604812873411447 -229.96127289017994 -24.376926556001536L347.46116824371404 -357.7513820559741Z " transform="rotate(241.5, 400, 400)"></path><path d="M349.9630159217478 -321.66799308297755C380.9258827850929 -339.5411928948504 419.07405617975087 -339.5411928948504 450.03692304309595 -321.6629893876215L999.9630574563284 -4.163507959076355C1030.9259243196734 13.709691852796368 1050.0000110170024 46.74909228890954 1050.0000110170024 82.5004956080113V717.4994584651015C1050.0000110170024 753.2508617842036 1030.9259243196734 786.2902622203167 999.9630574563284 804.1684657275453L450.03692304309595 1121.6679471560903C419.07405617975087 1139.5411469679632 380.9258827850929 1139.5411469679632 349.9630159217478 1121.6629434607346L-199.96311849148464 804.1634620321895C-230.92598535482966 786.2902622203167 -250.0000720521587 753.2508617842036 -250.0000720521587 717.4994584651015V82.5004956080113C-250.0000720521587 46.74909228890954 -230.92598535482966 13.709691852796368 -199.96311849148464 -4.168511654432223L349.9630159217478 -321.66799308297755Z " transform="rotate(230, 400, 400)"></path><path d="M352.46486359978155 -285.5845430748248C381.8795871199593 -302.56408289610397 418.12035184488445 -302.56408289610397 447.5350753650622 -285.5797895642365L969.9649030576331 16.04471779288133C999.379626577811 33.02425761416043 1017.5000089402733 64.411688028468 1017.5000089402733 98.37552118161466V701.6245358958504C1017.5000089402733 735.588369048997 999.379626577811 766.9757994633046 969.9649030576331 783.9600927951717L447.5350753650622 1085.5846001522896C418.12035184488445 1102.564139973569 381.8795871199593 1102.564139973569 352.46486359978155 1085.5798466417014L-169.96496409278927 783.9553392845837C-199.37968761296713 766.9757994633046 -217.50006997542965 735.588369048997 -217.50006997542965 701.6245358958504V98.37552118161466C-217.50006997542965 64.411688028468 -199.37968761296713 33.02425761416043 -169.96496409278927 16.039964282293113L352.46486359978155 -285.5845430748248Z " transform="rotate(218.5, 400, 400)"></path><path d="M354.9667112778152 -249.50115410182826C382.8332914548258 -265.5870339325138 417.1666475100179 -265.5870339325138 445.03322768702856 -249.49665077600775L939.9667486589376 36.25288250968288C967.8333288359481 52.33876234036836 985.0000068635443 82.07422273287011 985.0000068635443 114.25048572006176V685.749552291443C985.0000068635443 717.9258152786347 967.8333288359481 747.6612756711365 939.9667486589376 763.7516588276424L445.03322768702856 1049.501192113333C417.1666475100179 1065.5870719440184 382.8332914548258 1065.5870719440184 354.9667112778152 1049.4966887875125L-139.96680969409397 763.7471555018219C-167.83338987110454 747.6612756711365 -185.00006789870065 717.9258152786347 -185.00006789870065 685.749552291443V114.25048572006176C-185.00006789870065 82.07422273287011 -167.83338987110454 52.33876234036836 -139.96680969409397 36.248379183862426L354.9667112778152 -249.50115410182826Z " transform="rotate(207, 400, 400)"></path><path d="M357.46855895584895 -213.41776512883172C383.78699578969224 -228.60998496892358 416.2129431751515 -228.60998496892358 442.5313800089948 -213.41351198777903L909.9685942602423 56.46104722648431C936.2870310940857 71.65326706657618 952.5000047868152 99.73675743727233 952.5000047868152 130.12545025850886V669.8745686870357C952.5000047868152 700.2632615082721 936.2870310940857 728.3467518789682 909.9685942602423 743.5432248601128L442.5313800089948 1013.4177840743762C416.2129431751515 1028.610003914468 383.78699578969224 1028.610003914468 357.46855895584895 1013.4135309333235L-109.96865529539866 743.5389717190601C-136.28709212924196 728.3467518789682 -152.5000658219716 700.2632615082721 -152.5000658219716 669.8745686870357V130.12545025850886C-152.5000658219716 99.73675743727233 -136.28709212924196 71.65326706657618 -109.96865529539866 56.45679408543174L357.46855895584895 -213.41776512883172Z " transform="rotate(195.5, 400, 400)"></path><path d="M359.9704066338826 -177.33439141462424C384.74070012455866 -191.63295126412248 415.2592388402851 -191.63295126412248 440.02953233096116 -177.33038845833937L879.9704398615472 76.66919668449668C904.7407333522231 90.96775653399493 920.0000027100862 117.39927688288549 920.0000027100862 146.0003995381669V653.999569823839C920.0000027100862 682.6006924791204 904.7407333522231 709.0322128280111 879.9704398615472 723.3347756337939L440.02953233096116 977.3343607766301C415.2592388402851 991.6329206261282 384.74070012455866 991.6329206261282 359.9704066338826 977.3303578203452L-79.9705008967033 723.3307726775092C-104.74079438737937 709.0322128280111 -120.00006374524258 682.6006924791204 -120.00006374524258 653.999569823839V146.0003995381669C-120.00006374524258 117.39927688288549 -104.74079438737937 90.96775653399493 -79.9705008967033 76.66519372821199L359.9704066338826 -177.33439141462424Z " transform="rotate(184, 400, 400)"></path><path d="M362.47225431191623 -141.2510024416277C385.6944044594252 -154.65590230053232 414.30553450541856 -154.65590230053232 437.5276846529274 -141.24724967011065L849.9722854628517 96.87736140129823C873.1944356103604 110.28226126020286 887.5000006333573 135.0618115872876 887.5000006333573 161.875364076614V638.1245862194316C887.5000006333573 664.9381387087581 873.1944356103604 689.7176890358428 849.9722854628517 703.1263416662646L437.5276846529274 941.2509527376733C414.30553450541856 954.6558525965779 385.6944044594252 954.6558525965779 362.47225431191623 941.2471999661564L-49.972346498007994 703.1225888947474C-73.19449664551678 689.7176890358428 -87.50006166851358 664.9381387087581 -87.50006166851358 638.1245862194316V161.875364076614C-87.50006166851358 135.0618115872876 -73.19449664551678 110.28226126020286 -49.972346498007994 96.87360862978119L362.47225431191623 -141.2510024416277Z " transform="rotate(172.5, 400, 400)"></path><path d="M364.97410198995 -105.16755243347495C386.6481087942916 -117.67879230178588 413.35183017055215 -117.67879230178588 435.02583697489376 -105.16404984672567L819.9741310641564 117.08558715325591C841.648137868498 129.5968270215668 854.9999985566283 152.72440732684606 854.9999985566283 177.75038965021736V622.2496636501804C854.9999985566283 647.2756459735517 841.648137868498 670.403226278831 819.9741310641564 682.917968733891L435.02583697489376 905.1676057338727C413.35183017055215 917.6788456021834 386.6481087942916 917.6788456021834 364.97410198995 905.1641031471233L-19.97419209931269 682.9144661471419C-41.64819890365419 670.403226278831 -55.00005959178452 647.2756459735517 -55.00005959178452 622.2496636501804V177.75038965021736C-55.00005959178452 152.72440732684606 -41.64819890365419 129.5968270215668 -19.97419209931269 117.08208456650675L364.97410198995 -105.16755243347495Z " transform="rotate(161, 400, 400)"></path><path d="M367.47594966798374 -69.08416346047841C387.601813129158 -80.70174333819571 412.39812583568573 -80.70174333819571 432.52398929686 -69.08091105849695L789.9759766654611 137.2937518700574C810.1018401266354 148.91133174777474 822.4999964798994 170.38694203124828 822.4999964798994 193.62535418866446V606.3746800457732C822.4999964798994 629.6130922031892 810.1018401266354 651.0887024866629 789.9759766654611 662.7095347663615L432.52398929686 869.0841976949159C412.39812583568573 880.7017775726331 387.601813129158 880.7017775726331 367.47594966798374 869.0809452929343L10.023962299382674 662.7062823643802C-10.101901161791659 651.0887024866629 -22.500057515055516 629.6130922031892 -22.500057515055516 606.3746800457732V193.62535418866446C-22.500057515055516 170.38694203124828 -10.101901161791659 148.91133174777474 10.023962299382674 137.29049946807606L367.47594966798374 -69.08416346047841Z " transform="rotate(149.5, 400, 400)"></path><path d="M369.9777973460175 -33.00077448748186C388.55551746402443 -43.72469437460552 411.4444215008193 -43.72469437460552 430.02214161882625 -32.99777227026823L759.9778222667658 157.5019165868589C778.5555423847727 168.22583647398255 789.9999944031701 188.04947673565044 789.9999944031701 209.50031872711156V590.4996964413657C789.9999944031701 611.9505384328268 778.5555423847727 631.7741786944946 759.9778222667658 642.5011007988319L430.02214161882625 833.0007896559589C411.4444215008193 843.7247095430826 388.55551746402443 843.7247095430826 369.9777973460175 832.9977874387455L40.02211669807798 642.4980985816183C21.44439658007093 631.7741786944946 9.999944561673544 611.9505384328268 9.999944561673544 590.4996964413657V209.50031872711156C9.999944561673544 188.04947673565044 21.44439658007093 168.22583647398255 40.02211669807798 157.49891436964526L369.9777973460175 -33.00077448748186Z " transform="rotate(138, 400, 400)"></path><path d="M372.4797060592074 3.082614485514682C389.5092828340472 -6.747645411015355 410.49077820110904 -6.747645411015355 427.52035497594886 3.0853665179605514L729.9797289032266 177.71008130366033C747.0093056780665 187.54034120019037 757.5000533615975 205.7120114400526 757.5000533615975 225.37528326555855V574.6247128369582C757.5000533615975 594.2879846624643 747.0093056780665 612.4596549023265 729.9797289032266 622.2926668313022L427.52035497594886 796.9173816170021C410.49077820110904 806.747641513532 389.5092828340472 806.747641513532 372.4797060592074 796.9146295845562L70.02033213192954 622.2899147988564C52.99075535708977 612.4596549023265 42.5000076735588 594.2879846624643 42.5000076735588 574.6247128369582V225.37528326555855C42.5000076735588 205.7120114400526 52.99075535708977 187.54034120019037 70.02033213192954 177.70732927121458L372.4797060592074 3.082614485514682Z " transform="rotate(126.5, 400, 400)"></path><path d="M374.98155373724103 39.16600345851123C390.4629871689136 30.22940355257481 409.5370738662426 30.22940355257481 425.0185072979152 39.168505306189275L699.9815745045314 197.91824602046182C715.4630079362039 206.85484592639818 725.0000512848684 223.37454614445477 725.0000512848684 241.25024780400565V558.7497292325507C725.0000512848684 576.6254308921018 715.4630079362039 593.1451311101583 699.9815745045314 602.0842328637726L425.0185072979152 760.8339735780452C409.5370738662426 769.7705734839816 390.4629871689136 769.7705734839816 374.98155373724103 760.8314717303673L100.0184865306249 602.0817310160947C84.53705309895236 593.1451311101583 75.00000975028786 576.6254308921018 75.00000975028786 558.7497292325507V241.25024780400565C75.00000975028786 223.37454614445477 84.53705309895236 206.85484592639818 100.0184865306249 197.9157441727839L374.98155373724103 39.16600345851123Z " transform="rotate(115, 400, 400)"></path><path d="M377.4834014152748 75.2494229490859C391.41669150378016 67.20648303374313 408.5833695313761 67.20648303374313 422.51665961988147 75.25167461199612L669.983420105836 218.12644125484144C683.9167101943412 226.16938117018418 692.5000492081393 241.03711136643506 692.5000492081393 257.1252428600309V542.8747761457215C692.5000492081393 558.9629076393173 683.9167101943412 573.8306378355683 669.983420105836 581.8758294138212L422.51665961988147 724.7505960566665C408.5833695313761 732.7935359720092 391.41669150378016 732.7935359720092 377.4834014152748 724.7483443937563L130.0166409293202 581.873577750911C116.08335084081494 573.8306378355683 107.50001182701686 558.9629076393173 107.50001182701686 542.8747761457215V257.1252428600309C107.50001182701686 241.03711136643506 116.08335084081494 226.16938117018418 130.0166409293202 218.1241895919312L377.4834014152748 75.2494229490859Z " transform="rotate(103.5, 400, 400)"></path><path d="M379.9852490933085 111.33281192208239C392.3703958386466 104.18353199733329 407.6296651965097 104.18353199733329 420.0148119418477 111.33481340022485L639.9852657071408 238.33460597164287C652.3704124524787 245.483885896392 660.0000471314103 258.6996460708373 660.0000471314103 273.000207398478V526.999792541314C660.0000471314103 541.3003538689547 652.3704124524787 554.5161140434001 639.9852657071408 561.6673954462915L420.0148119418477 688.6671880177096C407.6296651965097 695.8164679424586 392.3703958386466 695.8164679424586 379.9852490933085 688.6651865395671L160.0147953280155 561.6653939681491C147.62964858267748 554.5161140434001 140.00001390374592 541.3003538689547 140.00001390374592 526.999792541314V273.000207398478C140.00001390374592 258.6996460708373 147.62964858267748 245.483885896392 160.0147953280155 238.33260449350053L379.9852490933085 111.33281192208239Z " transform="rotate(92, 400, 400)"></path><path d="M382.48706625376406 147.41623141265705C393.32406965593486 141.16061147850158 406.67593034406514 141.16061147850158 417.51293374623594 147.4179827060317L609.9870807908673 258.5428012060225C620.8240841930381 264.79842114017794 627.5000145371032 276.36221129281756 627.5000145371032 288.8752024545032V511.1248394544848C627.5000145371032 523.6378306161704 620.8240841930381 535.20162076881 609.9870807908673 541.45899199634L417.51293374623594 652.5838104963309C406.67593034406514 658.8394304304862 393.32406965593486 658.8394304304862 382.48706625376406 652.5820592029562L190.01291920913275 541.4572407029655C179.17591580696194 535.20162076881 172.4999854628968 523.6378306161704 172.4999854628968 511.1248394544848V288.8752024545032C172.4999854628968 276.36221129281756 179.17591580696194 264.79842114017794 190.01291920913275 258.5410499126479L382.48706625376406 147.41623141265705Z " transform="rotate(80.5, 400, 400)"></path><path d="M384.9889139317978 183.49960512686454C394.2777739908013 178.1376451833027 405.7222260091987 178.1376451833027 415.0110860682022 183.50110623547135L579.988926392172 278.7509506640349C589.2777864511754 284.11291060759675 595.0000124603741 294.02473073843066 595.0000124603741 304.75015173416125V495.2498405912884C595.0000124603741 505.97526158701885 589.2777864511754 515.8870817178528 579.988926392172 521.2505427700214L415.0110860682022 616.5003871985849C405.7222260091987 621.8623471421467 394.2777739908013 621.8623471421467 384.9889139317978 616.4988860899782L220.01107360782805 521.2490416614146C210.72221354882453 515.8870817178528 204.9999875396258 505.97526158701885 204.9999875396258 495.2498405912884V304.75015173416125C204.9999875396258 294.02473073843066 210.72221354882453 284.11291060759675 220.01107360782805 278.7494495554281L384.9889139317978 183.49960512686454Z " transform="rotate(69, 400, 400)"></path><path d="M387.49076160983145 219.58299409986108C395.23147832566775 215.11469414689287 404.76852167433225 215.11469414689287 412.50923839016855 219.58424502370008L549.9907719934766 298.95911538083635C557.7314887093129 303.42741533380456 562.5000103836451 311.6872654428329 562.5000103836451 320.6251162726083V479.3748569868808C562.5000103836451 488.31270781665637 557.7314887093129 496.5725579256846 549.9907719934766 501.04210880249184L412.50923839016855 580.416979159628C404.76852167433225 584.8852791125962 395.23147832566775 584.8852791125962 387.49076160983145 580.4157282357892L250.00922800652336 501.0408578786528C242.26851129068712 496.5725579256846 237.49998961635487 488.31270781665637 237.49998961635487 479.3748569868808V320.6251162726083C237.49998961635487 311.6872654428329 242.26851129068712 303.42741533380456 250.00922800652336 298.9578644569974L387.49076160983145 219.58299409986108Z " transform="rotate(57.5, 400, 400)"></path><path d="M389.9926092878652 255.6664288492248C396.1851826605342 252.09178888685025 403.8148173394658 252.09178888685025 410.0073907121348 255.66742958829602L519.9926175947813 319.16732587400503C526.1851909674504 322.74196583637956 530.000008306916 329.34984592360223 530.000008306916 336.5001265874226V463.4999191588406C530.000008306916 470.65019982266097 526.1851909674504 477.25807990988363 519.9926175947813 480.83372061132934L410.0073907121348 544.3336168970384C403.8148173394658 547.9082568594129 396.1851826605342 547.9082568594129 389.9926092878652 544.3326161579671L280.0073824052187 480.83271987225817C273.8148090325497 477.25807990988363 269.99999169308387 470.65019982266097 269.99999169308387 463.4999191588406V336.5001265874226C269.99999169308387 329.34984592360223 273.8148090325497 322.74196583637956 280.0073824052187 319.16632513493386L389.9926092878652 255.6664288492248Z " transform="rotate(46, 400, 400)"></path><path d="M392.4944569658989 291.7498178222213C397.13888699540064 289.06883785044045 402.86111300459936 289.06883785044045 407.5055430341011 291.7505683765247L489.994463196086 339.3754905908065C494.6388932255877 342.05647056258744 497.50000623018707 347.0123806280044 497.50000623018707 352.3750911258697V447.62493555443325C497.50000623018707 452.9876460522985 494.6388932255877 457.94355611771545 489.994463196086 460.62528664379977L407.5055430341011 508.2502088580815C402.86111300459936 510.93118882986244 397.13888699540064 510.93118882986244 392.4944569658989 508.24945830377817L310.005536803914 460.62453608949636C305.3611067744123 457.94355611771545 302.49999376981293 452.9876460522985 302.49999376981293 447.62493555443325V352.3750911258697C302.49999376981293 347.0123806280044 305.3611067744123 342.05647056258744 310.005536803914 339.3747400365031L392.4944569658989 291.7498178222213Z " transform="rotate(34.5, 400, 400)"></path><path d="M394.9963046439326 327.8331991658233C398.0925913302671 326.0458791846361 401.9074086697329 326.0458791846361 405.0036953560674 327.83369953535896L459.99630879739067 359.5836476782134C463.0925954837252 361.3709676594007 465.000004153458 364.674907703012 465.000004153458 368.2500480349222V431.74994432063124C465.000004153458 435.3250846525414 463.0925954837252 438.6290246961528 459.99630879739067 440.4168450468756L405.0036953560674 472.16679318973013C401.9074086697329 473.95411317091737 398.0925913302671 473.95411317091737 394.9963046439326 472.1662928201945L340.00369120260933 440.41634467734C336.9074045162748 438.6290246961528 334.99999584654194 435.3250846525414 334.99999584654194 431.74994432063124V368.2500480349222C334.99999584654194 364.674907703012 336.9074045162748 361.3709676594007 340.00369120260933 359.58314730867784L394.9963046439326 327.8331991658233Z " transform="rotate(23, 400, 400)"></path><path d="M397.4981523219663 363.9166033976089C399.0462956651335 363.0229434070153 400.9537043348665 363.0229434070153 402.5018476780337 363.91685358237675L429.9981543986953 379.791827653804C431.5462977418626 380.68548764439765 432.500002076729 382.3374576662033 432.500002076729 384.12502783215837V415.8749759750129C432.500002076729 417.662546140968 431.5462977418626 419.31451616277366 429.9981543986953 420.2084263381351L402.5018476780337 436.08340040956233C400.9537043348665 436.97706040015595 399.0462956651335 436.97706040015595 397.4981523219663 436.0831502247945L370.0018456013047 420.2081761533673C368.4537022581374 419.31451616277366 367.499997923271 417.662546140968 367.499997923271 415.8749759750129V384.12502783215837C367.499997923271 382.3374576662033 368.4537022581374 380.68548764439765 370.0018456013047 379.7915774690362L397.4981523219663 363.9166033976089Z " transform="rotate(11.5, 400, 400)"></path></g></svg>