<svg xmlns="http://www.w3.org/2000/svg" viewBox="0 0 800 800"><defs><linearGradient id="a" x1="50%" x2="50%" y1="0%" y2="100%"><stop offset="0%" stop-color="hsl(184, 1%, 24%)"/><stop offset="100%" stop-color="hsl(0, 0%, 86%)"/></linearGradient></defs><g fill="none" stroke="url(#a)" stroke-width="8"><path d="M-343.056 684.73c-28.759-26.822-41.028-66.952-32.179-105.272l157.128-680.598c8.843-38.319 37.464-69.01 75.072-80.507L524.943-385.87c37.608-11.498 78.498-2.059 107.263 24.763l510.85 476.376c28.759 26.822 41.028 66.952 32.179 105.272L1018.107 901.14c-8.843 38.319-37.464 69.01-75.072 80.507L275.057 1185.87c-37.608 11.498-78.498 2.059-107.263-24.762l-510.85-476.377Z"/><path d="M-240.856 807.74c-32.005-19.617-51.118-54.818-50.134-92.347l17.453-666.521c.98-37.526 21.911-71.68 54.901-89.592l585.95-318.145c32.99-17.912 73.034-16.865 105.044 2.75L1040.856-7.74c32.005 19.617 51.118 54.818 50.134 92.347l-17.453 666.521c-.98 37.526-21.911 71.68-54.9 89.592l-585.951 318.145c-32.99 17.912-73.034 16.865-105.044-2.75L-240.856 807.74Z"/><path d="M-120.667 902.21a100.078 100.078 0 0 1-64.322-76.664l-110.267-625.353c-6.21-35.208 6.838-71.057 34.225-94.037l486.438-408.17a100.082 100.082 0 0 1 98.555-17.379L920.667-102.21a100.078 100.078 0 0 1 64.322 76.665l110.267 625.352c6.21 35.208-6.838 71.057-34.225 94.037l-486.438 408.17a100.082 100.082 0 0 1-98.555 17.379L-120.667 902.21Z"/><path d="M10.415 966.135a95.074 95.074 0 0 1-74.4-59.186l-221.092-561.274c-12.45-31.6-7.092-67.444 14.05-94.024l375.532-472.108a95.078 95.078 0 0 1 88.457-34.845l596.623 89.167a95.074 95.074 0 0 1 74.4 59.186l221.092 561.274c12.45 31.6 7.092 67.444-14.05 94.024l-375.532 472.108a95.078 95.078 0 0 1-88.457 34.845L10.415 966.135Z"/><path d="M145.258 999.154a90.07 90.07 0 0 1-80.248-40.893l-311.262-479.3a90.061 90.061 0 0 1-4.714-89.94L8.489-120.19a90.074 90.074 0 0 1 75.537-49.056l570.716-29.91a90.07 90.07 0 0 1 80.248 40.894l311.262 479.3a90.061 90.061 0 0 1 4.714 89.94L791.511 920.19a90.074 90.074 0 0 1-75.537 49.056l-570.716 29.91Z"/><path d="M277.056 1002.474a85.066 85.066 0 0 1-81.968-22.736L-183.228 594.76a85.058 85.058 0 0 1-21.299-82.35L-60.285-7.71A85.07 85.07 0 0 1 .387-67.332l522.557-135.142a85.066 85.066 0 0 1 81.968 22.736L983.228 205.24a85.058 85.058 0 0 1 21.299 82.35L860.285 807.71a85.07 85.07 0 0 1-60.672 59.623l-522.557 135.142Z"/><path d="M399.66 978.72a80.062 80.062 0 0 1-79.865-5.588l-421.15-284.07a80.054 80.054 0 0 1-35.096-71.954l35.436-506.762a80.066 80.066 0 0 1 44.768-66.374L400.341-178.72a80.062 80.062 0 0 1 79.864 5.588l421.15 284.07a80.054 80.054 0 0 1 35.096 71.955l-35.436 506.761a80.066 80.066 0 0 1-44.768 66.374L399.659 978.72Z"/><path d="M507.854 931.722a75.058 75.058 0 0 1-74.414 9.793L-6.557 759.263a75.051 75.051 0 0 1-45.69-59.544l-62.164-472.175A75.062 75.062 0 0 1-85.689 158.2l377.835-289.922a75.058 75.058 0 0 1 74.414-9.793L806.557 40.737a75.051 75.051 0 0 1 45.69 59.544l62.164 472.175a75.062 75.062 0 0 1-28.722 69.344L507.854 931.722Z"/><path d="M597.584 866.242a70.054 70.054 0 0 1-66.236 22.803L95.015 804.231a70.048 70.048 0 0 1-52.869-45.956l-144.714-420.283a70.057 70.057 0 0 1 13.366-68.766L202.416-66.242a70.054 70.054 0 0 1 66.236-22.803L704.985-4.231a70.048 70.048 0 0 1 52.869 45.956l144.714 420.283a70.057 70.057 0 0 1-13.366 68.766L597.584 866.242Z"/><path d="M666.102 787.67a65.05 65.05 0 0 1-56.05 33.011l-412.733 3.602a65.044 65.044 0 0 1-56.614-32.03L-68.781 436.617a65.053 65.053 0 0 1-.569-65.047L133.898 12.33a65.05 65.05 0 0 1 56.05-33.011l412.733-3.602a65.044 65.044 0 0 1 56.614 32.03l209.486 355.636a65.053 65.053 0 0 1 .569 65.047L666.102 787.67Z"/><path d="M712.045 701.694a60.047 60.047 0 0 1-44.624 40.175l-372.674 79.214a60.04 60.04 0 0 1-57.104-18.553L-17.296 519.392A60.05 60.05 0 0 1-29.78 460.66L87.955 98.306a60.047 60.047 0 0 1 44.624-40.175l372.674-79.214A60.04 60.04 0 0 1 562.357-2.53l254.939 283.138a60.05 60.05 0 0 1 12.485 58.733L712.045 701.694Z"/><path d="M735.434 613.973a55.043 55.043 0 0 1-32.741 44.243L382.41 797.48a55.037 55.037 0 0 1-54.686-6.23L46.978 583.508a55.045 55.045 0 0 1-21.949-50.476l39.537-347.005a55.043 55.043 0 0 1 32.741-44.243L417.59 2.52a55.037 55.037 0 0 1 54.686 6.23l280.746 207.742a55.045 55.045 0 0 1 21.949 50.476l-39.537 347.005Z"/><path d="M737.6 529.82a50.039 50.039 0 0 1-21.149 45.348L456.371 757.28a50.034 50.034 0 0 1-49.846 4.362L118.773 627.46a50.041 50.041 0 0 1-28.701-40.989L62.4 270.18a50.039 50.039 0 0 1 21.149-45.347L343.629 42.72a50.034 50.034 0 0 1 49.846-4.362l287.752 134.182a50.041 50.041 0 0 1 28.701 40.988L737.6 529.82Z"/><path d="M721.034 453.917a45.035 45.035 0 0 1-10.515 43.789L513.822 704.98a45.03 45.03 0 0 1-43.178 12.79L192.79 651.066a45.037 45.037 0 0 1-32.667-31L78.966 346.084a45.035 45.035 0 0 1 10.515-43.788L286.178 95.019a45.03 45.03 0 0 1 43.178-12.79l277.854 66.706a45.037 45.037 0 0 1 32.667 31l81.157 273.982Z"/><path d="M689.19 390.072a40.031 40.031 0 0 1-1.4 40.005L553.193 645.48a40.027 40.027 0 0 1-35.343 18.793l-253.845-8.865a40.033 40.033 0 0 1-33.948-21.212L110.81 409.928a40.031 40.031 0 0 1 1.4-40.005L246.807 154.52a40.027 40.027 0 0 1 35.343-18.793l253.845 8.865a40.033 40.033 0 0 1 33.948 21.212L689.19 390.072Z"/><path d="M646.23 341.039a35.027 35.027 0 0 1 5.778 34.546L574.175 583.76a35.024 35.024 0 0 1-27.026 22.28l-219.201 36.68a35.029 35.029 0 0 1-32.81-12.265L153.772 458.96a35.027 35.027 0 0 1-5.78-34.546l77.834-208.175a35.024 35.024 0 0 1 27.026-22.28l219.201-36.68a35.029 35.029 0 0 1 32.81 12.265L646.228 341.04Z"/><path d="M596.741 308.4a30.023 30.023 0 0 1 10.758 28.028l-29.801 188.154a30.02 30.02 0 0 1-18.893 23.332l-177.847 68.269a30.025 30.025 0 0 1-29.653-4.697L203.26 491.601a30.023 30.023 0 0 1-10.758-28.029l29.801-188.154a30.02 30.02 0 0 1 18.893-23.332l177.847-68.269a30.025 30.025 0 0 1 29.653 4.697L596.74 308.399Z"/><path d="M545.441 292.512a25.02 25.02 0 0 1 13.441 21.1l6.925 158.6a25.017 25.017 0 0 1-11.552 22.191l-133.888 85.296a25.02 25.02 0 0 1-24.995 1.092l-140.813-73.303a25.02 25.02 0 0 1-13.441-21.1l-6.925-158.6a25.017 25.017 0 0 1 11.552-22.191l133.888-85.296a25.02 25.02 0 0 1 24.995-1.092l140.813 73.303Z"/><path d="M496.873 292.539a20.016 20.016 0 0 1 13.903 14.398L541.5 430.164a20.014 20.014 0 0 1-5.516 19.24l-91.356 88.22a20.016 20.016 0 0 1-19.421 4.843l-122.08-35.006a20.016 20.016 0 0 1-13.903-14.398L258.5 369.836a20.014 20.014 0 0 1 5.516-19.24l91.356-88.22a20.016 20.016 0 0 1 19.421-4.843l122.08 35.006Z"/><path d="M455.128 306.537a15.012 15.012 0 0 1 12.37 8.503l41.007 85.971a15.01 15.01 0 0 1-1.178 14.965l-53.95 78.498a15.012 15.012 0 0 1-13.549 6.462l-94.956-7.473a15.012 15.012 0 0 1-12.37-8.503l-41.007-85.971a15.01 15.01 0 0 1 1.178-14.965l53.95-78.498a15.012 15.012 0 0 1 13.549-6.462l94.956 7.473Z"/><path d="M423.592 331.615a10.008 10.008 0 0 1 9.212 3.91l38.215 50.714a10.007 10.007 0 0 1 1.22 9.933l-24.812 58.452a10.008 10.008 0 0 1-7.992 6.022l-63.027 7.739a10.008 10.008 0 0 1-9.212-3.91l-38.215-50.714a10.007 10.007 0 0 1-1.22-9.933l24.812-58.452a10.008 10.008 0 0 1 7.992-6.022l63.027-7.739Z"/><path d="M404.742 364.142a5.004 5.004 0 0 1 4.903.998l23.78 21.038a5.003 5.003 0 0 1 1.588 4.745l-6.33 31.113a5.004 5.004 0 0 1-3.316 3.747l-30.11 10.075a5.004 5.004 0 0 1-4.902-.998l-23.78-21.038a5.003 5.003 0 0 1-1.588-4.745l6.33-31.113a5.004 5.004 0 0 1 3.316-3.747l30.11-10.075Z"/></g></svg>