<svg xmlns="http://www.w3.org/2000/svg" width="800" height="800"><g fill="none" stroke="hsla(261, 3%, 47%, 1.00)" stroke-width="3.5"><path d="m0 0 66.667 66.667M66.667 0l66.666 66.667M133.333 0 200 66.667M200 0l66.667 66.667M266.667 0l66.666 66.667M333.333 0 400 66.667M400 0l66.667 66.667M466.667 0l66.666 66.667M533.333 0 600 66.667M600 0l66.667 66.667M666.667 0l66.666 66.667M733.333 0 800 66.667M800 0l66.667 66.667M0 66.667l66.667 66.666M66.667 66.667l66.666 66.666M133.333 66.667 200 133.333M200 66.667l66.667 66.666M266.667 66.667l66.666 66.666M333.333 66.667 400 133.333M400 66.667l66.667 66.666M466.667 66.667l66.666 66.666M533.333 66.667 600 133.333M600 66.667l66.667 66.666M666.667 66.667l66.666 66.666M733.333 66.667 800 133.333M800 66.667l66.667 66.666M0 133.333 66.667 200M66.667 133.333 133.333 200M133.333 133.333 200 200M200 133.333 266.667 200M266.667 133.333 333.333 200M333.333 133.333 400 200M400 133.333 466.667 200M466.667 133.333 533.333 200M533.333 133.333 600 200M600 133.333 666.667 200M666.667 133.333 733.333 200M733.333 133.333 800 200M800 133.333 866.667 200M0 200l66.667 66.667M66.667 200l66.666 66.667M133.333 200 200 266.667M200 200l66.667 66.667M266.667 200l66.666 66.667M333.333 200 400 266.667M400 200l66.667 66.667M466.667 200l66.666 66.667M533.333 200 600 266.667M600 200l66.667 66.667M666.667 200l66.666 66.667M733.333 200 800 266.667M800 200l66.667 66.667M0 266.667l66.667 66.666M66.667 266.667l66.666 66.666M133.333 266.667 200 333.333M200 266.667l66.667 66.666M266.667 266.667l66.666 66.666M333.333 266.667 400 333.333M400 266.667l66.667 66.666M466.667 266.667l66.666 66.666M533.333 266.667 600 333.333M600 266.667l66.667 66.666M666.667 266.667l66.666 66.666M733.333 266.667 800 333.333M800 266.667l66.667 66.666M0 333.333 66.667 400M66.667 333.333 133.333 400M133.333 333.333 200 400M200 333.333 266.667 400M266.667 333.333 333.333 400M333.333 333.333 400 400M400 333.333 466.667 400M466.667 333.333 533.333 400M533.333 333.333 600 400M600 333.333 666.667 400M666.667 333.333 733.333 400M733.333 333.333 800 400M800 333.333 866.667 400M0 400l66.667 66.667M66.667 400l66.666 66.667M133.333 400 200 466.667M200 400l66.667 66.667M266.667 400l66.666 66.667M333.333 400 400 466.667M400 400l66.667 66.667M466.667 400l66.666 66.667M533.333 400 600 466.667M600 400l66.667 66.667M666.667 400l66.666 66.667M733.333 400 800 466.667M800 400l66.667 66.667M0 466.667l66.667 66.666M66.667 466.667l66.666 66.666M133.333 466.667 200 533.333M200 466.667l66.667 66.666M266.667 466.667l66.666 66.666M333.333 466.667 400 533.333M400 466.667l66.667 66.666M466.667 466.667l66.666 66.666M533.333 466.667 600 533.333M600 466.667l66.667 66.666M666.667 466.667l66.666 66.666M733.333 466.667 800 533.333M800 466.667l66.667 66.666M0 533.333 66.667 600M66.667 533.333 133.333 600M133.333 533.333 200 600M200 533.333 266.667 600M266.667 533.333 333.333 600M333.333 533.333 400 600M400 533.333 466.667 600M466.667 533.333 533.333 600M533.333 533.333 600 600M600 533.333 666.667 600M666.667 533.333 733.333 600M733.333 533.333 800 600M800 533.333 866.667 600M0 600l66.667 66.667M66.667 600l66.666 66.667M133.333 600 200 666.667M200 600l66.667 66.667M266.667 600l66.666 66.667M333.333 600 400 666.667M400 600l66.667 66.667M466.667 600l66.666 66.667M533.333 600 600 666.667M600 600l66.667 66.667M666.667 600l66.666 66.667M733.333 600 800 666.667M800 600l66.667 66.667M0 666.667l66.667 66.666M66.667 666.667l66.666 66.666M133.333 666.667 200 733.333M200 666.667l66.667 66.666M266.667 666.667l66.666 66.666M333.333 666.667 400 733.333M400 666.667l66.667 66.666M466.667 666.667l66.666 66.666M533.333 666.667 600 733.333M600 666.667l66.667 66.666M666.667 666.667l66.666 66.666M733.333 666.667 800 733.333M800 666.667l66.667 66.666M0 733.333 66.667 800M66.667 733.333 133.333 800M133.333 733.333 200 800M200 733.333 266.667 800M266.667 733.333 333.333 800M333.333 733.333 400 800M400 733.333 466.667 800M466.667 733.333 533.333 800M533.333 733.333 600 800M600 733.333 666.667 800M666.667 733.333 733.333 800M733.333 733.333 800 800M800 733.333 866.667 800M0 800l66.667 66.667M66.667 800l66.666 66.667M133.333 800 200 866.667M200 800l66.667 66.667M266.667 800l66.666 66.667M333.333 800 400 866.667M400 800l66.667 66.667M466.667 800l66.666 66.667M533.333 800 600 866.667M600 800l66.667 66.667M666.667 800l66.666 66.667M733.333 800 800 866.667M800 800l66.667 66.667"/></g></svg>