<svg xmlns="http://www.w3.org/2000/svg" viewBox="0 0 1422 800"><g fill="none" stroke="hsl(0, 0%, 63%)" stroke-linejoin="round" shape-rendering="crispEdges"><path d="M1422 100 1244.25 0H1422zM1066.5 0l177.75 100V0zM1066.5 100v100l177.75-100zM1244.25 100 1422 200h-177.75zM1066.5 100V0L888.75 100zM711 100V0l177.75 100zM888.75 150v-50h-88.875zM799.875 100v50L711 100zM711 150l88.875 50H711zM799.875 200v-50h88.875zM888.75 200V100l177.75 100zM1066.5 200l-88.875 50v-50zM977.625 250v-50H888.75zM888.75 250l88.875 50v-50zM977.625 300l88.875-50v50zM888.75 250h-88.875l88.875-50zM799.875 250v-50L711 250zM799.875 300v-50L711 300zM888.75 300v-50h-88.875zM888.75 350v-50l-88.875 50zM799.875 300 711 350h88.875zM799.875 400H711v-50zM799.875 400l88.875-50h-88.875zM1066.5 300v50h-88.875zM977.625 300l-88.875 50h88.875zM977.625 350v50H888.75zM1066.5 350v50l-88.875-50zM1422 200h-177.75L1422 300zM1244.25 200v100H1066.5zM1155.375 300l88.875 50h-88.875zM1155.375 300v50H1066.5zM1155.375 350H1066.5v50zM1244.25 400v-50l-88.875 50zM1422 300v100l-177.75-100zM711 0 533.25 100V0zM533.25 100V0L355.5 100zM533.25 200H355.5V100zM622.125 150v-50H711zM533.25 100h88.875l-88.875 50zM622.125 200l-88.875-50v50zM622.125 200H711l-88.875-50zM355.5 0v100H177.75zM177.75 0v100H0zM177.75 200V100L0 200zM355.5 100H177.75L355.5 200zM355.5 200v100H177.75zM0 200v100h177.75zM177.75 400 0 300h177.75zM355.5 300v50h-88.875zM177.75 350h88.875v-50zM177.75 350l88.875 50H177.75zM355.5 400v-50l-88.875 50zM533.25 300V200L711 300zM533.25 200l-88.875 50h88.875zM355.5 200v50l88.875-50zM355.5 300h88.875L355.5 250zM533.25 300v-50l-88.875 50zM533.25 300h-88.875l88.875 50zM444.375 350v-50L355.5 350zM444.375 350H355.5l88.875 50zM533.25 350v50l-88.875-50zM711 300v50l-88.875-50zM533.25 350v-50l88.875 50zM622.125 350l-88.875 50v-50zM622.125 400H711l-88.875-50zM711 450v-50l-88.875 50zM622.125 450l-88.875-50h88.875zM622.125 500H533.25l88.875-50zM711 500v-50l-88.875 50zM533.25 450v-50l-88.875 50zM444.375 400H355.5v50zM444.375 450v50H355.5zM444.375 500h88.875v-50zM444.375 550l88.875-50h-88.875zM444.375 550 355.5 500v50zM444.375 550 355.5 600h88.875zM533.25 550l-88.875 50v-50zM711 500l-88.875 50v-50zM533.25 500v50l88.875-50zM533.25 600l88.875-50v50zM622.125 600 711 550v50zM355.5 400v100L177.75 400zM177.75 500 0 400h177.75zM177.75 500v100H0zM355.5 550h-88.875l88.875-50zM266.625 550v-50H177.75zM266.625 600H177.75l88.875-50zM355.5 550v50l-88.875-50zM355.5 600v100H177.75zM0 700l177.75-100v100zM177.75 800H0l177.75-100zM355.5 700H177.75L355.5 800zM711 600v100H533.25zM444.375 650l88.875-50v50zM444.375 600 355.5 650v-50zM444.375 650 355.5 700h88.875zM444.375 700l88.875-50v50zM533.25 700H355.5l177.75 100zM533.25 800 711 700H533.25zM1422 400v100l-177.75-100zM1244.25 450v-50h-88.875zM1066.5 450l88.875-50H1066.5zM1066.5 450h88.875l-88.875 50zM1244.25 500h-88.875l88.875-50zM1244.25 600V500H1066.5zM1244.25 500H1422l-177.75 100zM1066.5 400v50h-88.875zM888.75 450v-50h88.875zM977.625 500H888.75l88.875-50zM977.625 500h88.875l-88.875-50zM888.75 400l-88.875 50v-50zM799.875 400v50H711zM711 500l88.875-50H711zM888.75 450v50l-88.875-50zM888.75 550v-50l-88.875 50zM799.875 550v-50L711 550zM799.875 550H711v50zM888.75 600h-88.875v-50zM977.625 550l88.875-50h-88.875zM977.625 550v-50H888.75zM977.625 550v50H888.75zM1066.5 600h-88.875l88.875-50zM977.625 650l88.875-50v50zM977.625 600v50H888.75zM888.75 650l88.875 50v-50zM977.625 650l88.875 50v-50zM799.875 600l88.875 50v-50zM799.875 650 711 600h88.875zM711 700l88.875-50v50zM888.75 650v50h-88.875zM711 700v100h177.75zM1066.5 800V700H888.75zM1422 600v100h-177.75zM1244.25 700V600L1066.5 700zM1244.25 700v100L1066.5 700zM1244.25 700H1422v100z"/></g></svg>