<svg xmlns="http://www.w3.org/2000/svg" viewBox="0 0 800 800"><defs><linearGradient id="a" x1="50%" x2="50%" y1="0%" y2="100%"><stop offset="45%" stop-color="hsl(1.4, 100%, 67%)"/><stop offset="100%" stop-color="hsl(167, 52%, 78%)"/></linearGradient></defs><g fill="none" stroke="url(#a)" stroke-width="3"><path d="M1132.029-336.125c161.383 344.429-94.124 1399.124-395.245 1631.508-301.12 232.384-888.751-171.636-1050.135-516.065-161.383-344.429-25.627-904.81 275.494-1137.194 301.12-232.384 1008.502-322.678 1169.886 21.75C1293.412 8.305 1037.905 1063 736.784 1295.385"/><path d="M1100.201-304.12c154.367 329.454-90.031 1338.293-378.06 1560.573-288.028 222.28-850.11-164.173-1004.476-493.627-154.367-329.454-24.514-865.47 263.515-1087.75C269.208-547.206 945.834-633.575 1100.2-304.12c154.367 329.454-90.031 1338.293-378.06 1560.573"/><path d="M1068.374-272.114c147.35 314.478-85.939 1277.461-360.875 1489.638-274.937 212.177-811.469-156.711-958.82-471.19C-398.67 431.855-274.718-79.796.218-291.974c274.937-212.176 920.807-294.619 1068.157 19.86 147.35 314.478-85.939 1277.461-360.875 1489.638"/><path d="M1036.547-240.109C1176.88 59.395 954.7 976.521 692.856 1178.594c-261.844 202.073-772.827-149.249-913.16-448.752C-360.64 430.338-242.59-56.95 19.254-259.023c261.844-202.073 876.958-280.59 1017.292 18.914C1176.88 59.395 954.7 976.521 692.856 1178.594"/><path d="M1004.72-208.103c133.316 284.528-77.755 1155.798-326.507 1347.767C429.461 1331.634-55.973 997.878-189.29 713.35-322.607 428.82-210.46-34.102 38.292-226.071c248.752-191.97 833.11-266.56 966.427 17.968S926.965 947.695 678.213 1139.664"/><path d="M972.892-176.098c126.3 269.553-73.662 1094.967-309.322 1276.833C427.91 1282.6-31.974 966.41-158.274 696.858c-126.3-269.553-20.057-708.113 215.603-889.978 235.66-181.866 789.263-252.531 915.563 17.022 126.3 269.553-73.662 1094.967-309.322 1276.833"/><path d="M941.065-144.093c119.283 254.578-69.57 1034.136-292.137 1205.898C426.36 1233.567-7.976 934.943-127.26 680.365-246.543 425.787-146.201 11.593 76.366-160.169c222.568-171.762 745.415-238.502 864.699 16.076 119.283 254.578-69.57 1034.136-292.137 1205.898"/><path d="M909.237-112.087c112.267 239.603-65.477 973.304-274.952 1134.962C424.809 1184.534 16.023 903.476-96.244 663.873-208.511 424.271-114.072 34.44 95.404-127.218c209.475-161.658 701.566-224.472 813.833 15.13 112.267 239.604-65.477 973.305-274.952 1134.963"/><path d="M877.41-80.082c105.25 224.628-61.385 912.473-257.768 1064.028C423.259 1135.5 40.022 872.009-65.228 647.38-170.479 422.754-81.943 57.288 114.44-94.267 310.824-245.822 772.16-304.709 877.41-80.082c105.25 224.628-61.386 912.473-257.769 1064.028"/><path d="M845.583-48.076c98.233 209.652-57.293 851.64-240.584 993.092C421.71 1086.467 64.02 840.542-34.213 630.889c-98.234-209.652-15.6-550.754 167.691-692.205 183.291-141.45 613.871-196.413 712.105 13.24 98.233 209.652-57.293 851.64-240.584 993.092"/><path d="M813.755-16.07c91.217 194.676-53.2 790.809-223.399 922.156C420.158 1037.434 88.02 809.074-3.198 614.397-94.415 419.72-17.683 102.983 152.515-28.365c170.2-131.347 570.024-182.383 661.24 12.294 91.217 194.677-53.2 790.81-223.399 922.157"/><path d="M781.928 15.935c84.2 179.702-49.108 729.978-206.214 851.221C418.607 988.4 112.017 777.607 27.817 597.906c-84.2-179.703-13.37-472.076 143.736-593.32 157.106-121.243 526.175-168.353 610.375 11.349 84.2 179.702-49.108 729.978-206.214 851.221"/><path d="M750.1 47.94c77.184 164.727-45.015 669.147-189.03 780.287-144.013 111.14-425.054-82.087-502.238-246.814C-18.35 416.686 46.576 148.678 190.59 37.538 334.604-73.602 672.917-116.787 750.1 47.94c77.184 164.727-45.015 669.147-189.03 780.287"/><path d="M718.273 79.946C788.44 229.697 677.35 688.26 546.428 789.297c-130.922 101.037-386.414-74.624-456.58-224.376C19.68 415.169 78.705 171.525 209.628 70.489 340.548-30.548 648.106-69.806 718.272 79.946 788.44 229.697 677.35 688.26 546.428 789.297"/><path d="M686.446 111.951c63.15 134.777-36.831 547.483-154.66 638.416-117.83 90.933-347.773-67.162-410.923-201.938-63.15-134.777-10.028-354.056 107.801-444.99 117.83-90.932 394.632-126.265 457.782 8.512 63.15 134.777-36.831 547.483-154.66 638.416"/><path d="M654.619 143.956c56.133 119.802-32.739 486.652-137.477 567.482-104.737 80.829-309.13-59.7-365.264-179.501-56.133-119.802-8.914-314.717 95.824-395.546 104.737-80.83 350.783-112.236 406.917 7.565 56.133 119.802-32.739 486.652-137.477 567.482"/><path d="M622.791 175.962c49.117 104.826-28.646 425.82-120.291 496.546-91.646 70.726-270.49-52.237-319.607-157.063-49.116-104.827-7.8-275.377 83.846-346.103 91.646-70.725 306.936-98.206 356.052 6.62 49.117 104.826-28.646 425.82-120.291 496.546"/><path d="M590.964 207.967c42.1 89.851-24.554 364.99-103.107 425.611-78.553 60.622-231.848-44.774-273.948-134.625-42.1-89.851-6.686-236.038 71.867-296.66 78.554-60.622 263.088-84.177 305.188 5.674 42.1 89.851-24.554 364.99-103.107 425.611"/><path d="M559.137 239.973c35.083 74.876-20.462 304.157-85.923 354.676-65.461 50.518-193.207-37.313-228.29-112.189-35.084-74.875-5.571-196.697 59.89-247.216 65.46-50.518 219.24-70.147 254.323 4.729s-20.462 304.157-85.923 354.676"/><path d="M527.31 271.978c28.066 59.9-16.37 243.326-68.739 283.74-52.369 40.415-154.565-29.849-182.632-89.75-28.067-59.9-4.457-157.358 47.912-197.773 52.369-40.414 175.392-56.117 203.458 3.783 28.067 59.9-16.369 243.326-68.738 283.74"/><path d="M495.482 303.984c21.05 44.925-12.277 182.494-51.554 212.805-39.276 30.311-115.924-22.387-136.974-67.313-21.05-44.925-3.342-118.018 35.934-148.33 39.277-30.31 131.544-42.088 152.594 2.838 21.05 44.925-12.277 182.494-51.554 212.805"/><path d="M463.655 335.99c14.033 29.95-8.185 121.662-34.37 141.87-26.184 20.207-77.282-14.925-91.315-44.876-14.034-29.95-2.229-78.679 23.955-98.886 26.185-20.208 87.696-28.06 101.73 1.891 14.033 29.95-8.185 121.663-34.37 141.87"/><path d="M431.827 367.995c7.017 14.975-4.092 60.831-17.184 70.935-13.092 10.103-38.642-7.463-45.658-22.438-7.017-14.975-1.114-39.34 11.978-49.443 13.092-10.104 43.848-14.03 50.864.946 7.017 14.975-4.092 60.831-17.184 70.935"/></g></svg>