<svg xmlns="http://www.w3.org/2000/svg" width="100" height="100" fill="none"><rect width="100" height="100" fill="#282B2A" rx="26"/><path fill="#FDFDFD" d="m69.56 32.587-14.097-8.271C53.96 23.376 52.08 23 50.2 23s-3.76.564-5.451 1.504L30.65 32.586c-3.383 1.88-5.451 5.64-5.451 9.399v16.353c0 3.948 2.068 7.52 5.451 9.399l14.098 8.27c1.692.94 3.571 1.504 5.451 1.504 1.88 0 3.76-.564 5.451-1.504l14.098-8.27c3.383-1.88 5.451-5.64 5.451-9.399V41.985c-.188-3.76-2.256-7.33-5.64-9.398Zm-.187 25.94c0 1.879-.94 3.57-2.632 4.51l-14.097 8.271c-.752.376-1.692.752-2.632.752-.94 0-1.692-.188-2.632-.752l-14.097-8.27c-1.504-.94-2.632-2.632-2.632-4.512V42.173c0-1.88.94-3.572 2.632-4.511L47.38 29.39c.752-.376 1.692-.752 2.632-.752.94 0 1.692.188 2.632.752l14.097 8.27c1.504.94 2.632 2.632 2.632 4.512v16.353Z"/></svg>